<svg width="121" height="79" viewBox="0 0 121 79" fill="none" xmlns="http://www.w3.org/2000/svg">
<path d="M118.88 7.47604C120.172 7.96202 120.826 9.40365 120.34 10.696C119.854 11.9884 118.412 12.6421 117.12 12.1561L118.88 7.47604ZM20.7678 77.7678C19.7915 78.7441 18.2085 78.7441 17.2322 77.7678L1.32233 61.8579C0.346016 60.8816 0.346016 59.2986 1.32233 58.3223C2.29864 57.346 3.88155 57.346 4.85786 58.3223L19 72.4645L33.1421 58.3223C34.1184 57.346 35.7014 57.346 36.6777 58.3223C37.654 59.2986 37.654 60.8816 36.6777 61.8579L20.7678 77.7678ZM117.12 12.1561C100.903 6.05767 76.8314 2.11513 57.005 9.57077C47.1661 13.2706 38.3515 19.7794 31.9657 30.3084C25.5614 40.868 21.5 55.6389 21.5 76H16.5C16.5 54.9961 20.6886 39.2604 27.6905 27.7155C34.711 16.1402 44.4589 8.94682 55.245 4.89073C76.6686 -3.1655 102.097 1.16495 118.88 7.47604L117.12 12.1561Z" fill="white"/>
</svg>
