<svg width="186" height="101" viewBox="0 0 186 101" fill="none" xmlns="http://www.w3.org/2000/svg">
<path d="M2.29172 9.47264C0.967581 9.86381 0.211259 11.2543 0.60243 12.5785C0.993601 13.9026 2.38414 14.659 3.70828 14.2678L2.29172 9.47264ZM165.232 99.7678C166.209 100.744 167.791 100.744 168.768 99.7678L184.678 83.8579C185.654 82.8816 185.654 81.2986 184.678 80.3223C183.701 79.346 182.118 79.346 181.142 80.3223L167 94.4645L152.858 80.3223C151.882 79.346 150.299 79.346 149.322 80.3223C148.346 81.2986 148.346 82.8816 149.322 83.8579L165.232 99.7678ZM3.70828 14.2678C30.803 6.2636 71.2693 1.00032 104.792 10.9033C121.5 15.8393 136.375 24.5079 147.084 38.379C157.784 52.2395 164.5 71.5196 164.5 98H169.5C169.5 70.6493 162.549 50.2289 151.041 35.3235C139.542 20.4285 123.667 11.2656 106.208 6.1082C71.3974 -4.17545 29.8636 1.32749 2.29172 9.47264L3.70828 14.2678Z" fill="white"/>
</svg>
