<svg width="213" height="148" viewBox="0 0 213 148" fill="none" xmlns="http://www.w3.org/2000/svg">
<path d="M20.4114 1.39447C21.2981 0.336116 22.8749 0.196974 23.9333 1.08369C24.9916 1.9704 25.1308 3.54718 24.244 4.60553L20.4114 1.39447ZM211.768 127.232C212.744 128.209 212.744 129.791 211.768 130.768L195.858 146.678C194.882 147.654 193.299 147.654 192.322 146.678C191.346 145.701 191.346 144.118 192.322 143.142L206.464 129L192.322 114.858C191.346 113.882 191.346 112.299 192.322 111.322C193.299 110.346 194.882 110.346 195.858 111.322L211.768 127.232ZM24.244 4.60553C15.6389 14.8764 8.56697 27.6069 6.28054 40.8321C4.0095 53.9683 6.43849 67.6423 16.9131 80.1445C27.4586 92.7313 46.3444 104.348 77.4167 112.807C108.468 121.259 151.48 126.5 210 126.5L210 131.5C151.224 131.5 107.732 126.241 76.1034 117.631C44.496 109.027 24.5278 97.0187 13.0805 83.3555C1.56222 69.6077 -1.14045 54.4067 1.35362 39.9804C3.8323 25.6431 11.4223 12.1236 20.4114 1.39447L24.244 4.60553Z" fill="white"/>
</svg>
