<svg width="43" height="42" viewBox="0 0 43 42" fill="none" xmlns="http://www.w3.org/2000/svg">
<rect x="0.666504" width="42" height="42" rx="12.6" fill="url(#paint0_linear_121_286)"/>
<path d="M18.5415 21C21.299 21 23.5415 18.7575 23.5415 16C23.5415 13.2425 21.299 11 18.5415 11C15.784 11 13.5415 13.2425 13.5415 16C13.5415 18.7575 15.784 21 18.5415 21ZM20.4165 22.25H16.6665C12.5303 22.25 9.1665 25.6138 9.1665 29.75V31H27.9165V29.75C27.9165 25.6138 24.5528 22.25 20.4165 22.25Z" fill="white"/>
<path d="M27.4217 19.81C28.183 18.5126 28.5118 17.0066 28.3605 15.51C28.1367 13.28 26.8917 11.3087 24.8567 9.95999L23.4755 12.0425C24.8742 12.97 25.7255 14.2912 25.873 15.76C25.941 16.4426 25.856 17.1318 25.6242 17.7775C25.3924 18.4231 25.0196 19.009 24.533 19.4925L23.043 20.9825L25.0655 21.5762C30.3555 23.1262 30.4167 28.4462 30.4167 28.5H32.9167C32.9167 26.2637 31.7217 21.8937 27.4217 19.81Z" fill="white"/>
<defs>
<linearGradient id="paint0_linear_121_286" x1="38.4665" y1="5.59509e-07" x2="7.1765" y2="42" gradientUnits="userSpaceOnUse">
<stop stop-color="#B883FD"/>
<stop offset="1" stop-color="#923EFF"/>
</linearGradient>
</defs>
</svg>
