<svg width="42" height="42" viewBox="0 0 42 42" fill="none" xmlns="http://www.w3.org/2000/svg">
<rect width="42" height="42" rx="12.6" fill="url(#paint0_linear_121_207)"/>
<path d="M27.25 14.75C24.6325 14.75 22.7363 16.7087 20.9988 18.9325C19.2613 16.7087 17.3663 14.75 14.75 14.75C11.3038 14.75 8.50002 17.5537 8.50002 21C8.49801 21.8202 8.65809 22.6326 8.97107 23.3907C9.28405 24.1488 9.74376 24.8376 10.3238 25.4175C10.9015 26 11.5891 26.4619 12.3468 26.7765C13.1045 27.0911 13.9171 27.252 14.7375 27.25H14.7525C17.3638 27.2437 19.2588 25.285 20.9975 23.0612C22.7363 25.2887 24.6325 27.25 27.25 27.25C30.6963 27.25 33.5 24.4462 33.5 21C33.5 17.5537 30.6963 14.75 27.25 14.75ZM14.7475 24.75L14.7375 26V24.75C13.7388 24.75 12.8 24.36 12.095 23.6525C11.5725 23.127 11.2172 22.4586 11.0738 21.7315C10.9304 21.0044 11.0054 20.2512 11.2893 19.5666C11.5731 18.8821 12.0532 18.2968 12.6691 17.8846C13.2849 17.4723 14.0089 17.2515 14.75 17.25C16.4125 17.25 17.95 19.0475 19.4325 20.9975C17.9475 22.9462 16.41 24.7462 14.7475 24.75ZM27.25 24.75C25.5875 24.75 24.0488 22.95 22.5638 20.9975C24.0475 19.0475 25.585 17.25 27.25 17.25C29.3175 17.25 31 18.9325 31 21C31 23.0675 29.3175 24.75 27.25 24.75Z" fill="white"/>
<defs>
<linearGradient id="paint0_linear_121_207" x1="37.8" y1="5.59509e-07" x2="6.51" y2="42" gradientUnits="userSpaceOnUse">
<stop stop-color="#FF94FA"/>
<stop offset="1" stop-color="#E650DF"/>
</linearGradient>
</defs>
</svg>
