<svg width="43" height="42" viewBox="0 0 43 42" fill="none" xmlns="http://www.w3.org/2000/svg">
<rect x="0.333496" width="42" height="42" rx="12.6" fill="url(#paint0_linear_121_358)"/>
<g clip-path="url(#clip0_121_358)">
<path d="M7.3335 29.4C7.3335 30.173 7.96043 30.8 8.7335 30.8H33.9335C34.7066 30.8 35.3335 30.173 35.3335 29.4V15.4H7.3335V29.4ZM26.9335 20.3C26.9335 19.9132 27.2467 19.6 27.6335 19.6H31.8335C32.2202 19.6 32.5335 19.9132 32.5335 20.3V21.7C32.5335 22.0867 32.2202 22.4 31.8335 22.4H27.6335C27.2467 22.4 26.9335 22.0867 26.9335 21.7V20.3ZM26.9335 25.55C26.9335 25.3566 27.0901 25.2 27.2835 25.2H32.1835C32.3769 25.2 32.5335 25.3566 32.5335 25.55V26.25C32.5335 26.4434 32.3769 26.6 32.1835 26.6H27.2835C27.0901 26.6 26.9335 26.4434 26.9335 26.25V25.55ZM10.1335 21.35C10.1335 21.1566 10.2901 21 10.4835 21H23.7835C23.9769 21 24.1335 21.1566 24.1335 21.35V22.05C24.1335 22.2434 23.9769 22.4 23.7835 22.4H10.4835C10.2901 22.4 10.1335 22.2434 10.1335 22.05V21.35ZM10.1335 25.55C10.1335 25.3566 10.2901 25.2 10.4835 25.2H18.1835C18.3769 25.2 18.5335 25.3566 18.5335 25.55V26.25C18.5335 26.4434 18.3769 26.6 18.1835 26.6H10.4835C10.2901 26.6 10.1335 26.4434 10.1335 26.25V25.55ZM34.6335 11.2H8.0335C7.64675 11.2 7.3335 11.5132 7.3335 11.9V14H35.3335V11.9C35.3335 11.5132 35.0202 11.2 34.6335 11.2Z" fill="white"/>
</g>
<defs>
<linearGradient id="paint0_linear_121_358" x1="38.1335" y1="5.59509e-07" x2="6.8435" y2="42" gradientUnits="userSpaceOnUse">
<stop stop-color="#98D3FE"/>
<stop offset="1" stop-color="#3EAEFF"/>
</linearGradient>
<clipPath id="clip0_121_358">
<rect width="28" height="22.4" fill="white" transform="translate(7.3335 9.79999)"/>
</clipPath>
</defs>
</svg>
