<svg width="422" height="192" viewBox="0 0 422 192" fill="none" xmlns="http://www.w3.org/2000/svg">
<g filter="url(#filter0_b_137_1506)">
<rect x="0.544189" width="420.912" height="192" rx="11.907" fill="black" fill-opacity="0.7"/>
<path d="M11.9273 18.3348V11.4764H14.6707C15.1596 11.4764 15.5549 11.5749 15.8566 11.7717C16.1582 11.9654 16.3789 12.2099 16.5186 12.5052C16.6583 12.8005 16.7282 13.0989 16.7282 13.4006C16.7282 13.7848 16.6409 14.1039 16.4662 14.3579C16.2948 14.6119 16.0582 14.7818 15.7566 14.8675V14.6294C16.1852 14.7183 16.5059 14.9167 16.7187 15.2247C16.9346 15.5327 17.0425 15.8772 17.0425 16.2583C17.0425 16.6679 16.9663 17.0282 16.8139 17.3394C16.6647 17.6506 16.4361 17.8951 16.1281 18.0729C15.8201 18.2475 15.4327 18.3348 14.9659 18.3348H11.9273ZM13.2418 17.1156H14.8326C15.0072 17.1156 15.1628 17.079 15.2993 17.006C15.4359 16.9298 15.5422 16.825 15.6185 16.6917C15.6978 16.5551 15.7375 16.3948 15.7375 16.2106C15.7375 16.0487 15.7042 15.9042 15.6375 15.7772C15.5708 15.6502 15.4692 15.5502 15.3327 15.4772C15.1993 15.401 15.0326 15.3629 14.8326 15.3629H13.2418V17.1156ZM13.2418 14.1531H14.6516C14.7977 14.1531 14.9278 14.1277 15.0422 14.0769C15.1565 14.0261 15.247 13.9483 15.3136 13.8435C15.3803 13.7356 15.4137 13.5974 15.4137 13.4292C15.4137 13.2196 15.3486 13.0434 15.2184 12.9005C15.0882 12.7576 14.8993 12.6862 14.6516 12.6862H13.2418V14.1531ZM19.4212 18.4777C19.0529 18.4777 18.7402 18.4079 18.483 18.2682C18.229 18.1253 18.0353 17.9364 17.9019 17.7014C17.7717 17.4632 17.7066 17.2013 17.7066 16.9155C17.7066 16.6774 17.7432 16.4599 17.8162 16.263C17.8892 16.0662 18.0067 15.8931 18.1686 15.7439C18.3337 15.5915 18.5544 15.4645 18.8307 15.3629C19.0212 15.293 19.2482 15.2311 19.5117 15.1771C19.7753 15.1231 20.0737 15.0723 20.4071 15.0247C20.7405 14.9739 21.1073 14.9183 21.5073 14.858L21.0406 15.1152C21.0406 14.8104 20.9676 14.5865 20.8215 14.4436C20.6754 14.3008 20.431 14.2293 20.088 14.2293C19.8975 14.2293 19.6991 14.2754 19.4927 14.3674C19.2863 14.4595 19.1418 14.623 19.0593 14.858L17.8876 14.4865C18.0178 14.061 18.2623 13.7149 18.6211 13.4482C18.9799 13.1815 19.4689 13.0481 20.088 13.0481C20.5421 13.0481 20.9453 13.118 21.2978 13.2577C21.6502 13.3974 21.9169 13.6387 22.0979 13.9816C22.1995 14.1722 22.2599 14.3627 22.2789 14.5532C22.298 14.7437 22.3075 14.9564 22.3075 15.1914V18.3348H21.174V17.2775L21.3359 17.4966C21.085 17.8427 20.8136 18.0935 20.5214 18.2491C20.2325 18.4015 19.8658 18.4777 19.4212 18.4777ZM19.6975 17.4585C19.9356 17.4585 20.1357 17.4172 20.2976 17.3347C20.4627 17.2489 20.5929 17.1521 20.6881 17.0441C20.7866 16.9362 20.8533 16.8457 20.8882 16.7726C20.9549 16.6329 20.993 16.471 21.0025 16.2868C21.0152 16.0995 21.0215 15.9439 21.0215 15.8201L21.4026 15.9153C21.0184 15.9788 20.7072 16.0328 20.4691 16.0773C20.2309 16.1186 20.0388 16.1567 19.8928 16.1916C19.7467 16.2265 19.6181 16.2646 19.507 16.3059C19.38 16.3567 19.2768 16.4123 19.1974 16.4726C19.1212 16.5297 19.064 16.5932 19.0259 16.6631C18.991 16.733 18.9735 16.8107 18.9735 16.8965C18.9735 17.014 19.0021 17.1156 19.0593 17.2013C19.1196 17.2838 19.2037 17.3474 19.3117 17.3918C19.4197 17.4363 19.5483 17.4585 19.6975 17.4585ZM25.813 18.4777C25.2796 18.4777 24.8223 18.3587 24.4413 18.1205C24.0603 17.8824 23.7682 17.5585 23.5649 17.1489C23.3617 16.7393 23.2601 16.2773 23.2601 15.7629C23.2601 15.2422 23.3649 14.777 23.5745 14.3674C23.7872 13.9578 24.0857 13.6356 24.4699 13.4006C24.8541 13.1656 25.3081 13.0481 25.832 13.0481C26.4385 13.0481 26.9465 13.2021 27.3561 13.5101C27.7689 13.8149 28.0324 14.2325 28.1468 14.7627L26.8513 15.1057C26.7751 14.839 26.6417 14.631 26.4512 14.4817C26.2639 14.3325 26.0511 14.2579 25.813 14.2579C25.5399 14.2579 25.3161 14.3246 25.1414 14.4579C24.9668 14.5881 24.8382 14.7675 24.7556 14.9961C24.6731 15.2216 24.6318 15.4772 24.6318 15.7629C24.6318 16.2106 24.7302 16.5742 24.9271 16.8536C25.1271 17.1299 25.4224 17.268 25.813 17.268C26.1051 17.268 26.3274 17.2013 26.4798 17.0679C26.6322 16.9346 26.7465 16.7441 26.8227 16.4964L28.1468 16.7726C28.0007 17.3188 27.7245 17.7395 27.318 18.0348C26.9116 18.3301 26.4099 18.4777 25.813 18.4777ZM29.0899 18.3348L29.0994 11.4764H30.4139V15.6677L32.1571 13.191H33.7574L31.8999 15.7629L33.8812 18.3348H32.1952L30.4139 15.8582V18.3348H29.0899ZM34.4505 18.3348V11.3335H35.7459V18.3348H34.4505ZM39.4885 18.4777C38.971 18.4777 38.5169 18.3618 38.1264 18.13C37.7358 17.8982 37.431 17.5791 37.2119 17.1727C36.996 16.7631 36.888 16.2932 36.888 15.7629C36.888 15.2263 36.9992 14.7548 37.2214 14.3484C37.4437 13.9388 37.7501 13.6197 38.1406 13.3911C38.5312 13.1624 38.9805 13.0481 39.4885 13.0481C40.0061 13.0481 40.4601 13.164 40.8507 13.3958C41.2444 13.6276 41.5508 13.9483 41.7699 14.3579C41.989 14.7643 42.0985 15.2327 42.0985 15.7629C42.0985 16.2964 41.9874 16.7679 41.7651 17.1775C41.546 17.5839 41.2396 17.903 40.8459 18.1348C40.4554 18.3634 40.0029 18.4777 39.4885 18.4777ZM39.4885 17.268C39.9045 17.268 40.2141 17.1283 40.4173 16.8488C40.6237 16.5663 40.7268 16.2043 40.7268 15.7629C40.7268 15.3057 40.6221 14.9406 40.4125 14.6675C40.2061 14.3944 39.8981 14.2579 39.4885 14.2579C39.2059 14.2579 38.9741 14.3214 38.7932 14.4484C38.6122 14.5754 38.4772 14.7516 38.3883 14.9771C38.3026 15.2025 38.2597 15.4645 38.2597 15.7629C38.2597 16.2233 38.3629 16.5901 38.5693 16.8631C38.7789 17.133 39.0853 17.268 39.4885 17.268ZM45.3463 20.7639C45.0542 20.7639 44.7764 20.7162 44.5128 20.621C44.2493 20.5289 44.0127 20.3987 43.8032 20.2304C43.5968 20.0653 43.4285 19.8716 43.2983 19.6494L44.4985 19.0683C44.5811 19.2207 44.6986 19.3366 44.851 19.416C45.0066 19.4954 45.1748 19.5351 45.3558 19.5351C45.5495 19.5351 45.7321 19.5017 45.9036 19.435C46.075 19.3715 46.2115 19.2747 46.3132 19.1445C46.4179 19.0175 46.4671 18.8587 46.4608 18.6682V17.1727H46.6227V13.191H47.7563V18.6873C47.7563 18.8143 47.7499 18.9334 47.7372 19.0445C47.7277 19.1588 47.7086 19.2715 47.6801 19.3827C47.5975 19.697 47.4435 19.9558 47.2181 20.159C46.9958 20.3622 46.7228 20.513 46.3989 20.6115C46.075 20.7131 45.7242 20.7639 45.3463 20.7639ZM45.232 18.4777C44.7589 18.4777 44.3445 18.3587 43.9889 18.1205C43.6333 17.8824 43.3555 17.5585 43.1554 17.1489C42.9586 16.7393 42.8601 16.2773 42.8601 15.7629C42.8601 15.239 42.9601 14.7739 43.1602 14.3674C43.3634 13.9578 43.6476 13.6356 44.0127 13.4006C44.3779 13.1656 44.8065 13.0481 45.2987 13.0481C45.7877 13.0481 46.1988 13.1672 46.5322 13.4053C46.8656 13.6435 47.1181 13.9674 47.2895 14.377C47.461 14.7866 47.5467 15.2486 47.5467 15.7629C47.5467 16.2773 47.4594 16.7393 47.2848 17.1489C47.1133 17.5585 46.8561 17.8824 46.5132 18.1205C46.1703 18.3587 45.7432 18.4777 45.232 18.4777ZM45.4416 17.3251C45.7305 17.3251 45.9607 17.26 46.1322 17.1299C46.3068 16.9997 46.4322 16.8171 46.5084 16.5821C46.5846 16.3472 46.6227 16.0741 46.6227 15.7629C46.6227 15.4518 46.5846 15.1787 46.5084 14.9437C46.4322 14.7088 46.31 14.5262 46.1417 14.396C45.9766 14.2658 45.7591 14.2007 45.4892 14.2007C45.2002 14.2007 44.9621 14.2722 44.7748 14.4151C44.5906 14.5548 44.4541 14.7437 44.3652 14.9818C44.2763 15.2168 44.2318 15.4772 44.2318 15.7629C44.2318 16.0519 44.2747 16.3154 44.3604 16.5536C44.4461 16.7885 44.5779 16.9759 44.7557 17.1156C44.9335 17.2553 45.1621 17.3251 45.4416 17.3251Z" fill="white"/>
<path d="M146.869 18.3348V11.4764H148.165V18.3348H146.869ZM153.098 18.3348V15.9058C153.098 15.7883 153.092 15.6391 153.079 15.4581C153.066 15.274 153.027 15.0898 152.96 14.9056C152.893 14.7215 152.784 14.5675 152.631 14.4436C152.482 14.3198 152.269 14.2579 151.993 14.2579C151.882 14.2579 151.763 14.2754 151.636 14.3103C151.509 14.3452 151.39 14.4135 151.279 14.5151C151.167 14.6135 151.075 14.7596 151.002 14.9533C150.933 15.1469 150.898 15.4041 150.898 15.7248L150.155 15.3724C150.155 14.966 150.237 14.5849 150.402 14.2293C150.567 13.8737 150.815 13.5863 151.145 13.3672C151.479 13.1482 151.898 13.0386 152.403 13.0386C152.806 13.0386 153.135 13.1069 153.389 13.2434C153.643 13.3799 153.839 13.553 153.979 13.7626C154.122 13.9721 154.224 14.1912 154.284 14.4198C154.344 14.6453 154.381 14.8517 154.393 15.039C154.406 15.2263 154.413 15.3629 154.413 15.4486V18.3348H153.098ZM149.583 18.3348V13.191H150.736V14.8961H150.898V18.3348H149.583ZM157.555 18.3348V11.4764H160.451C160.518 11.4764 160.607 11.4796 160.718 11.4859C160.832 11.4891 160.934 11.4986 161.023 11.5145C161.432 11.578 161.767 11.713 162.028 11.9194C162.291 12.1257 162.485 12.3861 162.609 12.7005C162.733 13.0116 162.794 13.3593 162.794 13.7435C162.794 14.1277 162.731 14.477 162.604 14.7913C162.48 15.1025 162.286 15.3613 162.023 15.5677C161.762 15.774 161.429 15.909 161.023 15.9725C160.934 15.9852 160.832 15.9947 160.718 16.0011C160.604 16.0074 160.515 16.0106 160.451 16.0106H158.851V18.3348H157.555ZM158.851 14.8008H160.394C160.461 14.8008 160.534 14.7977 160.613 14.7913C160.692 14.785 160.765 14.7723 160.832 14.7532C161.007 14.7056 161.142 14.6262 161.237 14.5151C161.332 14.4008 161.397 14.2754 161.432 14.1388C161.47 13.9991 161.489 13.8673 161.489 13.7435C161.489 13.6197 161.47 13.4895 161.432 13.353C161.397 13.2133 161.332 13.0878 161.237 12.9767C161.142 12.8624 161.007 12.7814 160.832 12.7338C160.765 12.7147 160.692 12.702 160.613 12.6957C160.534 12.6893 160.461 12.6862 160.394 12.6862H158.851V14.8008ZM163.751 18.3348V13.191H164.894V14.4484L164.77 14.2865C164.837 14.1087 164.926 13.9467 165.037 13.8007C165.148 13.6546 165.284 13.5339 165.446 13.4387C165.57 13.3625 165.705 13.3037 165.851 13.2625C165.997 13.218 166.148 13.191 166.304 13.1815C166.459 13.1688 166.615 13.172 166.77 13.191V14.4008C166.627 14.3563 166.461 14.342 166.27 14.3579C166.083 14.3706 165.913 14.4135 165.761 14.4865C165.608 14.5564 165.48 14.65 165.375 14.7675C165.27 14.8818 165.191 15.0183 165.137 15.1771C165.083 15.3327 165.056 15.5089 165.056 15.7058V18.3348H163.751ZM169.898 18.4777C169.38 18.4777 168.926 18.3618 168.536 18.13C168.145 17.8982 167.84 17.5791 167.621 17.1727C167.405 16.7631 167.298 16.2932 167.298 15.7629C167.298 15.2263 167.409 14.7548 167.631 14.3484C167.853 13.9388 168.16 13.6197 168.55 13.3911C168.941 13.1624 169.39 13.0481 169.898 13.0481C170.416 13.0481 170.87 13.164 171.26 13.3958C171.654 13.6276 171.96 13.9483 172.179 14.3579C172.398 14.7643 172.508 15.2327 172.508 15.7629C172.508 16.2964 172.397 16.7679 172.175 17.1775C171.956 17.5839 171.649 17.903 171.255 18.1348C170.865 18.3634 170.412 18.4777 169.898 18.4777ZM169.898 17.268C170.314 17.268 170.624 17.1283 170.827 16.8488C171.033 16.5663 171.136 16.2043 171.136 15.7629C171.136 15.3057 171.032 14.9406 170.822 14.6675C170.616 14.3944 170.308 14.2579 169.898 14.2579C169.615 14.2579 169.384 14.3214 169.203 14.4484C169.022 14.5754 168.887 14.7516 168.798 14.9771C168.712 15.2025 168.669 15.4645 168.669 15.7629C168.669 16.2233 168.772 16.5901 168.979 16.8631C169.188 17.133 169.495 17.268 169.898 17.268ZM175.756 20.7639C175.464 20.7639 175.186 20.7162 174.922 20.621C174.659 20.5289 174.422 20.3987 174.213 20.2304C174.006 20.0653 173.838 19.8716 173.708 19.6494L174.908 19.0683C174.991 19.2207 175.108 19.3366 175.26 19.416C175.416 19.4954 175.584 19.5351 175.765 19.5351C175.959 19.5351 176.142 19.5017 176.313 19.435C176.484 19.3715 176.621 19.2747 176.723 19.1445C176.827 19.0175 176.877 18.8587 176.87 18.6682V17.1727H177.032V13.191H178.166V18.6873C178.166 18.8143 178.159 18.9334 178.147 19.0445C178.137 19.1588 178.118 19.2715 178.09 19.3827C178.007 19.697 177.853 19.9558 177.628 20.159C177.405 20.3622 177.132 20.513 176.808 20.6115C176.484 20.7131 176.134 20.7639 175.756 20.7639ZM175.641 18.4777C175.168 18.4777 174.754 18.3587 174.398 18.1205C174.043 17.8824 173.765 17.5585 173.565 17.1489C173.368 16.7393 173.27 16.2773 173.27 15.7629C173.27 15.239 173.37 14.7739 173.57 14.3674C173.773 13.9578 174.057 13.6356 174.422 13.4006C174.787 13.1656 175.216 13.0481 175.708 13.0481C176.197 13.0481 176.608 13.1672 176.942 13.4053C177.275 13.6435 177.528 13.9674 177.699 14.377C177.87 14.7866 177.956 15.2486 177.956 15.7629C177.956 16.2773 177.869 16.7393 177.694 17.1489C177.523 17.5585 177.266 17.8824 176.923 18.1205C176.58 18.3587 176.153 18.4777 175.641 18.4777ZM175.851 17.3251C176.14 17.3251 176.37 17.26 176.542 17.1299C176.716 16.9997 176.842 16.8171 176.918 16.5821C176.994 16.3472 177.032 16.0741 177.032 15.7629C177.032 15.4518 176.994 15.1787 176.918 14.9437C176.842 14.7088 176.719 14.5262 176.551 14.396C176.386 14.2658 176.169 14.2007 175.899 14.2007C175.61 14.2007 175.372 14.2722 175.184 14.4151C175 14.5548 174.864 14.7437 174.775 14.9818C174.686 15.2168 174.641 15.4772 174.641 15.7629C174.641 16.0519 174.684 16.3154 174.77 16.5536C174.856 16.7885 174.987 16.9759 175.165 17.1156C175.343 17.2553 175.572 17.3251 175.851 17.3251ZM179.5 18.3348V13.191H180.643V14.4484L180.519 14.2865C180.585 14.1087 180.674 13.9467 180.786 13.8007C180.897 13.6546 181.033 13.5339 181.195 13.4387C181.319 13.3625 181.454 13.3037 181.6 13.2625C181.746 13.218 181.897 13.191 182.052 13.1815C182.208 13.1688 182.364 13.172 182.519 13.191V14.4008C182.376 14.3563 182.21 14.342 182.019 14.3579C181.832 14.3706 181.662 14.4135 181.509 14.4865C181.357 14.5564 181.228 14.65 181.124 14.7675C181.019 14.8818 180.94 15.0183 180.886 15.1771C180.832 15.3327 180.805 15.5089 180.805 15.7058V18.3348H179.5ZM185.723 18.4777C185.196 18.4777 184.731 18.365 184.328 18.1396C183.927 17.911 183.613 17.5982 183.385 17.2013C183.159 16.8012 183.046 16.344 183.046 15.8296C183.046 15.2676 183.157 14.7786 183.38 14.3627C183.602 13.9467 183.908 13.6244 184.299 13.3958C184.69 13.164 185.139 13.0481 185.647 13.0481C186.187 13.0481 186.645 13.1751 187.023 13.4292C187.401 13.6832 187.681 14.0404 187.862 14.5008C188.043 14.9612 188.106 15.5026 188.052 16.1249H186.771V15.6486C186.771 15.1247 186.687 14.7485 186.518 14.5198C186.353 14.2881 186.082 14.1722 185.704 14.1722C185.263 14.1722 184.937 14.3071 184.728 14.577C184.521 14.8437 184.418 15.239 184.418 15.7629C184.418 16.2424 184.521 16.6139 184.728 16.8774C184.937 17.1378 185.244 17.268 185.647 17.268C185.901 17.268 186.118 17.2124 186.299 17.1013C186.48 16.9901 186.618 16.8298 186.714 16.6202L188.009 16.9917C187.815 17.4617 187.509 17.8268 187.09 18.0872C186.674 18.3475 186.218 18.4777 185.723 18.4777ZM184.018 16.1249V15.1628H187.428V16.1249H184.018ZM191.137 18.4777C190.49 18.4777 189.966 18.3317 189.566 18.0395C189.169 17.7443 188.927 17.3283 188.842 16.7917L190.166 16.5917C190.22 16.833 190.339 17.0219 190.523 17.1584C190.71 17.295 190.947 17.3632 191.233 17.3632C191.468 17.3632 191.649 17.3188 191.776 17.2299C191.903 17.1378 191.966 17.0108 191.966 16.8488C191.966 16.7472 191.941 16.6663 191.89 16.6059C191.839 16.5424 191.725 16.4805 191.547 16.4202C191.372 16.3599 191.099 16.2805 190.728 16.1821C190.309 16.0741 189.974 15.9534 189.723 15.8201C189.472 15.6867 189.291 15.528 189.18 15.3438C189.069 15.1565 189.013 14.931 189.013 14.6675C189.013 14.3373 189.097 14.0515 189.266 13.8102C189.434 13.5657 189.67 13.3784 189.975 13.2482C190.283 13.1148 190.645 13.0481 191.061 13.0481C191.464 13.0481 191.822 13.1101 192.133 13.2339C192.444 13.3577 192.695 13.5339 192.885 13.7626C193.079 13.9912 193.198 14.2611 193.243 14.5722L191.918 14.8104C191.896 14.6199 191.814 14.469 191.671 14.3579C191.528 14.2468 191.334 14.1817 191.09 14.1626C190.852 14.1468 190.659 14.1785 190.513 14.2579C190.371 14.3373 190.299 14.4516 190.299 14.6008C190.299 14.6897 190.329 14.7643 190.39 14.8247C190.453 14.885 190.582 14.9469 190.775 15.0104C190.972 15.0739 191.271 15.1565 191.671 15.2581C192.061 15.3597 192.374 15.4788 192.609 15.6153C192.847 15.7486 193.02 15.9106 193.128 16.1011C193.236 16.2884 193.29 16.5155 193.29 16.7822C193.29 17.3093 193.1 17.7236 192.719 18.0253C192.338 18.3269 191.811 18.4777 191.137 18.4777ZM196.347 18.4777C195.699 18.4777 195.175 18.3317 194.775 18.0395C194.378 17.7443 194.137 17.3283 194.051 16.7917L195.375 16.5917C195.429 16.833 195.548 17.0219 195.732 17.1584C195.92 17.295 196.156 17.3632 196.442 17.3632C196.677 17.3632 196.858 17.3188 196.985 17.2299C197.112 17.1378 197.175 17.0108 197.175 16.8488C197.175 16.7472 197.15 16.6663 197.099 16.6059C197.048 16.5424 196.934 16.4805 196.756 16.4202C196.582 16.3599 196.309 16.2805 195.937 16.1821C195.518 16.0741 195.183 15.9534 194.932 15.8201C194.681 15.6867 194.5 15.528 194.389 15.3438C194.278 15.1565 194.222 14.931 194.222 14.6675C194.222 14.3373 194.307 14.0515 194.475 13.8102C194.643 13.5657 194.88 13.3784 195.185 13.2482C195.493 13.1148 195.855 13.0481 196.27 13.0481C196.674 13.0481 197.031 13.1101 197.342 13.2339C197.653 13.3577 197.904 13.5339 198.095 13.7626C198.288 13.9912 198.407 14.2611 198.452 14.5722L197.128 14.8104C197.106 14.6199 197.023 14.469 196.88 14.3579C196.737 14.2468 196.544 14.1817 196.299 14.1626C196.061 14.1468 195.869 14.1785 195.723 14.2579C195.58 14.3373 195.508 14.4516 195.508 14.6008C195.508 14.6897 195.539 14.7643 195.599 14.8247C195.662 14.885 195.791 14.9469 195.985 15.0104C196.182 15.0739 196.48 15.1565 196.88 15.2581C197.271 15.3597 197.583 15.4788 197.818 15.6153C198.057 15.7486 198.23 15.9106 198.338 16.1011C198.445 16.2884 198.499 16.5155 198.499 16.7822C198.499 17.3093 198.309 17.7236 197.928 18.0253C197.547 18.3269 197.02 18.4777 196.347 18.4777Z" fill="white"/>
<path d="M284.563 18.4777C283.877 18.4777 283.285 18.3285 282.787 18.03C282.291 17.7316 281.909 17.314 281.639 16.7774C281.372 16.2408 281.239 15.6169 281.239 14.9056C281.239 14.1944 281.372 13.5705 281.639 13.0339C281.909 12.4972 282.291 12.0797 282.787 11.7812C283.285 11.4828 283.877 11.3335 284.563 11.3335C285.351 11.3335 286.011 11.5288 286.545 11.9194C287.081 12.3099 287.459 12.8386 287.678 13.5054L286.373 13.8673C286.246 13.4514 286.032 13.1291 285.73 12.9005C285.429 12.6687 285.04 12.5528 284.563 12.5528C284.128 12.5528 283.765 12.6497 283.473 12.8433C283.184 13.037 282.966 13.3101 282.82 13.6625C282.674 14.015 282.601 14.4293 282.601 14.9056C282.601 15.3819 282.674 15.7963 282.82 16.1487C282.966 16.5012 283.184 16.7742 283.473 16.9679C283.765 17.1616 284.128 17.2584 284.563 17.2584C285.04 17.2584 285.429 17.1426 285.73 16.9108C286.032 16.679 286.246 16.3567 286.373 15.9439L287.678 16.3059C287.459 16.9727 287.081 17.5014 286.545 17.8919C286.011 18.2824 285.351 18.4777 284.563 18.4777ZM291.042 18.4777C290.524 18.4777 290.07 18.3618 289.679 18.13C289.289 17.8982 288.984 17.5791 288.765 17.1727C288.549 16.7631 288.441 16.2932 288.441 15.7629C288.441 15.2263 288.552 14.7548 288.775 14.3484C288.997 13.9388 289.303 13.6197 289.694 13.3911C290.084 13.1624 290.534 13.0481 291.042 13.0481C291.559 13.0481 292.013 13.164 292.404 13.3958C292.797 13.6276 293.104 13.9483 293.323 14.3579C293.542 14.7643 293.652 15.2327 293.652 15.7629C293.652 16.2964 293.54 16.7679 293.318 17.1775C293.099 17.5839 292.793 17.903 292.399 18.1348C292.008 18.3634 291.556 18.4777 291.042 18.4777ZM291.042 17.268C291.458 17.268 291.767 17.1283 291.97 16.8488C292.177 16.5663 292.28 16.2043 292.28 15.7629C292.28 15.3057 292.175 14.9406 291.966 14.6675C291.759 14.3944 291.451 14.2579 291.042 14.2579C290.759 14.2579 290.527 14.3214 290.346 14.4484C290.165 14.5754 290.03 14.7516 289.941 14.9771C289.856 15.2025 289.813 15.4645 289.813 15.7629C289.813 16.2233 289.916 16.5901 290.122 16.8631C290.332 17.133 290.638 17.268 291.042 17.268ZM300.891 18.3348V15.2962C300.891 14.9564 300.81 14.6929 300.648 14.5056C300.489 14.315 300.268 14.2198 299.986 14.2198C299.805 14.2198 299.648 14.2627 299.514 14.3484C299.381 14.4309 299.276 14.5484 299.2 14.7008C299.127 14.8501 299.09 15.0231 299.09 15.22L298.547 14.858C298.547 14.5056 298.63 14.1944 298.795 13.9245C298.963 13.6546 299.187 13.445 299.467 13.2958C299.749 13.1434 300.062 13.0672 300.405 13.0672C300.992 13.0672 301.435 13.2418 301.734 13.5911C302.035 13.9372 302.186 14.3912 302.186 14.9533V18.3348H300.891ZM294.689 18.3348V13.191H295.833V14.8961H295.994V18.3348H294.689ZM297.795 18.3348V15.2962C297.795 14.9564 297.714 14.6929 297.552 14.5056C297.393 14.315 297.172 14.2198 296.89 14.2198C296.62 14.2198 296.402 14.3135 296.237 14.5008C296.075 14.685 295.994 14.9247 295.994 15.22L295.452 14.839C295.452 14.5024 295.536 14.2007 295.704 13.934C295.872 13.6673 296.098 13.4562 296.38 13.3006C296.666 13.145 296.985 13.0672 297.338 13.0672C297.741 13.0672 298.071 13.1529 298.328 13.3244C298.589 13.4958 298.781 13.7245 298.905 14.0102C299.028 14.296 299.09 14.6103 299.09 14.9533V18.3348H297.795ZM305.949 18.4777C305.438 18.4777 305.011 18.3587 304.668 18.1205C304.325 17.8824 304.066 17.5585 303.891 17.1489C303.72 16.7393 303.634 16.2773 303.634 15.7629C303.634 15.2486 303.72 14.7866 303.891 14.377C304.063 13.9674 304.315 13.6435 304.649 13.4053C304.982 13.1672 305.393 13.0481 305.882 13.0481C306.374 13.0481 306.803 13.1656 307.168 13.4006C307.533 13.6356 307.816 13.9578 308.016 14.3674C308.219 14.7739 308.321 15.239 308.321 15.7629C308.321 16.2773 308.221 16.7393 308.021 17.1489C307.824 17.5585 307.548 17.8824 307.192 18.1205C306.836 18.3587 306.422 18.4777 305.949 18.4777ZM303.415 20.621V13.191H304.558V16.7155H304.72V20.621H303.415ZM305.739 17.3251C306.019 17.3251 306.247 17.2553 306.425 17.1156C306.603 16.9759 306.735 16.7885 306.82 16.5536C306.906 16.3154 306.949 16.0519 306.949 15.7629C306.949 15.4772 306.905 15.2168 306.816 14.9818C306.727 14.7437 306.589 14.5548 306.401 14.4151C306.217 14.2722 305.981 14.2007 305.692 14.2007C305.422 14.2007 305.203 14.2658 305.034 14.396C304.869 14.5262 304.749 14.7088 304.672 14.9437C304.596 15.1787 304.558 15.4518 304.558 15.7629C304.558 16.0741 304.596 16.3472 304.672 16.5821C304.749 16.8171 304.872 16.9997 305.044 17.1299C305.219 17.26 305.45 17.3251 305.739 17.3251ZM309.464 18.3348V11.3335H310.759V18.3348H309.464ZM314.578 18.4777C314.051 18.4777 313.586 18.365 313.183 18.1396C312.783 17.911 312.468 17.5982 312.24 17.2013C312.014 16.8012 311.902 16.344 311.902 15.8296C311.902 15.2676 312.013 14.7786 312.235 14.3627C312.457 13.9467 312.764 13.6244 313.154 13.3958C313.545 13.164 313.994 13.0481 314.502 13.0481C315.042 13.0481 315.501 13.1751 315.879 13.4292C316.256 13.6832 316.536 14.0404 316.717 14.5008C316.898 14.9612 316.961 15.5026 316.907 16.1249H315.626V15.6486C315.626 15.1247 315.542 14.7485 315.374 14.5198C315.209 14.2881 314.937 14.1722 314.559 14.1722C314.118 14.1722 313.792 14.3071 313.583 14.577C313.376 14.8437 313.273 15.239 313.273 15.7629C313.273 16.2424 313.376 16.6139 313.583 16.8774C313.792 17.1378 314.099 17.268 314.502 17.268C314.756 17.268 314.974 17.2124 315.155 17.1013C315.336 16.9901 315.474 16.8298 315.569 16.6202L316.864 16.9917C316.671 17.4617 316.364 17.8268 315.945 18.0872C315.529 18.3475 315.074 18.4777 314.578 18.4777ZM312.873 16.1249V15.1628H316.283V16.1249H312.873ZM321.069 18.3348C320.713 18.4015 320.364 18.4301 320.021 18.4206C319.681 18.4142 319.377 18.3555 319.107 18.2443C318.84 18.13 318.637 17.9475 318.497 17.6966C318.37 17.4617 318.303 17.2235 318.297 16.9822C318.291 16.7377 318.288 16.4615 318.288 16.1535V11.7622H319.583V16.0773C319.583 16.2773 319.585 16.4583 319.588 16.6202C319.594 16.779 319.627 16.906 319.688 17.0013C319.802 17.1822 319.985 17.2807 320.236 17.2966C320.486 17.3124 320.764 17.2997 321.069 17.2584V18.3348ZM317.411 14.1912V13.191H321.069V14.1912H317.411ZM324.327 18.4777C323.8 18.4777 323.335 18.365 322.932 18.1396C322.532 17.911 322.217 17.5982 321.989 17.2013C321.763 16.8012 321.65 16.344 321.65 15.8296C321.65 15.2676 321.762 14.7786 321.984 14.3627C322.206 13.9467 322.512 13.6244 322.903 13.3958C323.294 13.164 323.743 13.0481 324.251 13.0481C324.791 13.0481 325.25 13.1751 325.627 13.4292C326.005 13.6832 326.285 14.0404 326.466 14.5008C326.647 14.9612 326.71 15.5026 326.656 16.1249H325.375V15.6486C325.375 15.1247 325.291 14.7485 325.123 14.5198C324.957 14.2881 324.686 14.1722 324.308 14.1722C323.867 14.1722 323.541 14.3071 323.332 14.577C323.125 14.8437 323.022 15.239 323.022 15.7629C323.022 16.2424 323.125 16.6139 323.332 16.8774C323.541 17.1378 323.848 17.268 324.251 17.268C324.505 17.268 324.722 17.2124 324.903 17.1013C325.084 16.9901 325.223 16.8298 325.318 16.6202L326.613 16.9917C326.42 17.4617 326.113 17.8268 325.694 18.0872C325.278 18.3475 324.822 18.4777 324.327 18.4777ZM322.622 16.1249V15.1628H326.032V16.1249H322.622ZM329.818 18.4777C329.345 18.4777 328.93 18.3587 328.575 18.1205C328.219 17.8824 327.941 17.5585 327.741 17.1489C327.544 16.7393 327.446 16.2773 327.446 15.7629C327.446 15.239 327.546 14.7739 327.746 14.3674C327.949 13.9578 328.233 13.6356 328.598 13.4006C328.964 13.1656 329.392 13.0481 329.884 13.0481C330.373 13.0481 330.784 13.1672 331.118 13.4053C331.451 13.6435 331.704 13.9674 331.875 14.377C332.047 14.7866 332.132 15.2486 332.132 15.7629C332.132 16.2773 332.045 16.7393 331.87 17.1489C331.699 17.5585 331.442 17.8824 331.099 18.1205C330.756 18.3587 330.329 18.4777 329.818 18.4777ZM330.027 17.3251C330.316 17.3251 330.546 17.26 330.718 17.1299C330.892 16.9997 331.018 16.8171 331.094 16.5821C331.17 16.3472 331.208 16.0741 331.208 15.7629C331.208 15.4518 331.17 15.1787 331.094 14.9437C331.018 14.7088 330.896 14.5262 330.727 14.396C330.562 14.2658 330.345 14.2007 330.075 14.2007C329.786 14.2007 329.548 14.2722 329.36 14.4151C329.176 14.5548 329.04 14.7437 328.951 14.9818C328.862 15.2168 328.817 15.4772 328.817 15.7629C328.817 16.0519 328.86 16.3154 328.946 16.5536C329.032 16.7885 329.164 16.9759 329.341 17.1156C329.519 17.2553 329.748 17.3251 330.027 17.3251ZM331.208 18.3348V14.8104H331.046V11.4764H332.351V18.3348H331.208Z" fill="white"/>
<rect x="11.2605" y="26.7906" width="125.916" height="102.995" rx="11.907" fill="white" fill-opacity="0.4"/>
<rect x="14.8328" y="32.7441" width="118.772" height="41.9721" rx="11.907" fill="black" fill-opacity="0.4"/>
<rect x="24.3584" y="42.2698" width="78.8837" height="5.06047" rx="2.53023" fill="white"/>
<rect x="24.3584" y="53.2837" width="98.2326" height="2.97674" rx="1.48837" fill="white" fill-opacity="0.6"/>
<rect x="24.3584" y="62.2139" width="65.4884" height="2.97674" rx="1.48837" fill="white" fill-opacity="0.6"/>
<rect x="14.8328" y="81.8605" width="118.772" height="41.9721" rx="11.907" fill="black" fill-opacity="0.4"/>
<rect x="24.3584" y="91.3861" width="78.8837" height="5.06047" rx="2.53023" fill="white"/>
<rect x="24.3584" y="102.4" width="98.2326" height="2.97674" rx="1.48837" fill="white" fill-opacity="0.6"/>
<rect x="24.3584" y="111.33" width="65.4884" height="2.97674" rx="1.48837" fill="white" fill-opacity="0.6"/>
<rect x="280.953" y="26.7906" width="125.916" height="152.112" rx="11.907" fill="#37A490" fill-opacity="0.4"/>
<rect x="284.525" y="32.7441" width="118.772" height="41.9721" rx="11.907" fill="black" fill-opacity="0.4"/>
<rect x="294.051" y="42.2698" width="78.8837" height="5.06047" rx="2.53023" fill="white"/>
<rect x="294.051" y="53.2837" width="98.2326" height="2.97674" rx="1.48837" fill="white" fill-opacity="0.6"/>
<rect x="294.051" y="62.2139" width="65.4884" height="2.97674" rx="1.48837" fill="white" fill-opacity="0.6"/>
<rect x="284.525" y="81.8605" width="118.772" height="41.9721" rx="11.907" fill="black" fill-opacity="0.4"/>
<rect x="294.051" y="91.3861" width="78.8837" height="5.06047" rx="2.53023" fill="white"/>
<rect x="294.051" y="102.4" width="98.2326" height="2.97674" rx="1.48837" fill="white" fill-opacity="0.6"/>
<rect x="294.051" y="111.33" width="65.4884" height="2.97674" rx="1.48837" fill="white" fill-opacity="0.6"/>
<rect x="284.525" y="130.977" width="118.772" height="41.9721" rx="11.907" fill="black" fill-opacity="0.4"/>
<rect x="294.051" y="140.502" width="78.8837" height="5.06047" rx="2.53023" fill="white"/>
<rect x="294.051" y="151.516" width="98.2326" height="2.97674" rx="1.48837" fill="white" fill-opacity="0.6"/>
<rect x="294.051" y="160.446" width="65.4884" height="2.97674" rx="1.48837" fill="white" fill-opacity="0.6"/>
<rect x="146.107" y="26.7906" width="125.916" height="102.995" rx="11.907" fill="#445CDE" fill-opacity="0.4"/>
<rect x="150.179" y="33.2441" width="117.772" height="40.9721" rx="11.407" fill="black" fill-opacity="0.3"/>
<rect x="150.179" y="33.2441" width="117.772" height="40.9721" rx="11.407" stroke="white" stroke-dasharray="2 2"/>
<rect x="134.5" y="49.5" width="117.772" height="40.9721" rx="11.407" fill="#101637"/>
<rect x="143.526" y="58.5256" width="78.8837" height="5.06047" rx="2.53023" fill="white"/>
<rect x="143.526" y="69.5396" width="98.2326" height="2.97674" rx="1.48837" fill="white" fill-opacity="0.6"/>
<rect x="143.526" y="78.4697" width="65.4884" height="2.97674" rx="1.48837" fill="white" fill-opacity="0.6"/>
<rect x="134.5" y="49.5" width="117.772" height="40.9721" rx="11.407" stroke="white"/>
<path d="M238.239 88.2018L236.673 87.732L237.213 89.2753L243.047 105.942L243.853 108.244L244.624 105.93L247.015 98.7577L255.039 94.7454L256.919 93.8056L254.906 93.2018L238.239 88.2018Z" fill="#FD8DF8" stroke="black" stroke-width="1.66667" stroke-linecap="round"/>
<rect x="261" y="97" width="105" height="18" fill="#FD8DF8"/>
<path d="M265.507 110.333V101.693H269.155C269.239 101.693 269.351 101.697 269.491 101.705C269.635 101.709 269.763 101.721 269.875 101.741C270.391 101.821 270.813 101.991 271.141 102.251C271.473 102.511 271.717 102.839 271.873 103.235C272.029 103.627 272.107 104.065 272.107 104.549C272.107 105.033 272.027 105.473 271.867 105.869C271.711 106.261 271.467 106.587 271.135 106.847C270.807 107.107 270.387 107.277 269.875 107.357C269.763 107.373 269.635 107.385 269.491 107.393C269.347 107.401 269.235 107.405 269.155 107.405H267.139V110.333H265.507ZM267.139 105.881H269.083C269.167 105.881 269.259 105.877 269.359 105.869C269.459 105.861 269.551 105.845 269.635 105.821C269.855 105.761 270.025 105.661 270.145 105.521C270.265 105.377 270.347 105.219 270.391 105.047C270.439 104.871 270.463 104.705 270.463 104.549C270.463 104.393 270.439 104.229 270.391 104.057C270.347 103.881 270.265 103.723 270.145 103.583C270.025 103.439 269.855 103.337 269.635 103.277C269.551 103.253 269.459 103.237 269.359 103.229C269.259 103.221 269.167 103.217 269.083 103.217H267.139V105.881ZM273.311 110.333V103.853H274.751V105.437L274.595 105.233C274.679 105.009 274.791 104.805 274.931 104.621C275.071 104.437 275.243 104.285 275.447 104.165C275.603 104.069 275.773 103.995 275.957 103.943C276.141 103.887 276.331 103.853 276.527 103.841C276.723 103.825 276.919 103.829 277.115 103.853V105.377C276.935 105.321 276.725 105.303 276.485 105.323C276.249 105.339 276.035 105.393 275.843 105.485C275.651 105.573 275.489 105.691 275.357 105.839C275.225 105.983 275.125 106.155 275.057 106.355C274.989 106.551 274.955 106.773 274.955 107.021V110.333H273.311ZM281.055 110.513C280.403 110.513 279.831 110.367 279.339 110.075C278.847 109.783 278.463 109.381 278.187 108.869C277.915 108.353 277.779 107.761 277.779 107.093C277.779 106.417 277.919 105.823 278.199 105.311C278.479 104.795 278.865 104.393 279.357 104.105C279.849 103.817 280.415 103.673 281.055 103.673C281.707 103.673 282.279 103.819 282.771 104.111C283.267 104.403 283.653 104.807 283.929 105.323C284.205 105.835 284.343 106.425 284.343 107.093C284.343 107.765 284.203 108.359 283.923 108.875C283.647 109.387 283.261 109.789 282.765 110.081C282.273 110.369 281.703 110.513 281.055 110.513ZM281.055 108.989C281.579 108.989 281.969 108.813 282.225 108.461C282.485 108.105 282.615 107.649 282.615 107.093C282.615 106.517 282.483 106.057 282.219 105.713C281.959 105.369 281.571 105.197 281.055 105.197C280.699 105.197 280.407 105.277 280.179 105.437C279.951 105.597 279.781 105.819 279.669 106.103C279.561 106.387 279.507 106.717 279.507 107.093C279.507 107.673 279.637 108.135 279.897 108.479C280.161 108.819 280.547 108.989 281.055 108.989ZM284.703 113.213V111.689H284.991C285.363 111.689 285.617 111.605 285.753 111.437C285.893 111.269 285.963 111.029 285.963 110.717V103.853H287.595V111.509C287.595 112.025 287.433 112.437 287.109 112.745C286.789 113.057 286.355 113.213 285.807 113.213H284.703ZM285.963 102.953V101.513H287.595V102.953H285.963ZM292.284 110.513C291.62 110.513 291.034 110.371 290.526 110.087C290.022 109.799 289.626 109.405 289.338 108.905C289.054 108.401 288.912 107.825 288.912 107.177C288.912 106.469 289.052 105.853 289.332 105.329C289.612 104.805 289.998 104.399 290.49 104.111C290.982 103.819 291.548 103.673 292.188 103.673C292.868 103.673 293.446 103.833 293.922 104.153C294.398 104.473 294.75 104.923 294.978 105.503C295.206 106.083 295.286 106.765 295.218 107.549H293.604V106.949C293.604 106.289 293.498 105.815 293.286 105.527C293.078 105.235 292.736 105.089 292.26 105.089C291.704 105.089 291.294 105.259 291.03 105.599C290.77 105.935 290.64 106.433 290.64 107.093C290.64 107.697 290.77 108.165 291.03 108.497C291.294 108.825 291.68 108.989 292.188 108.989C292.508 108.989 292.782 108.919 293.01 108.779C293.238 108.639 293.412 108.437 293.532 108.173L295.164 108.641C294.92 109.233 294.534 109.693 294.006 110.021C293.482 110.349 292.908 110.513 292.284 110.513ZM290.136 107.549V106.337H294.432V107.549H290.136ZM299.429 110.513C298.757 110.513 298.181 110.363 297.701 110.063C297.221 109.763 296.853 109.355 296.597 108.839C296.341 108.323 296.213 107.741 296.213 107.093C296.213 106.437 296.345 105.851 296.609 105.335C296.877 104.819 297.253 104.413 297.737 104.117C298.221 103.821 298.793 103.673 299.453 103.673C300.217 103.673 300.857 103.867 301.373 104.255C301.893 104.639 302.225 105.165 302.369 105.833L300.737 106.265C300.641 105.929 300.473 105.667 300.233 105.479C299.997 105.291 299.729 105.197 299.429 105.197C299.085 105.197 298.803 105.281 298.583 105.449C298.363 105.613 298.201 105.839 298.097 106.127C297.993 106.411 297.941 106.733 297.941 107.093C297.941 107.657 298.065 108.115 298.313 108.467C298.565 108.815 298.937 108.989 299.429 108.989C299.797 108.989 300.077 108.905 300.269 108.737C300.461 108.569 300.605 108.329 300.701 108.017L302.369 108.365C302.185 109.053 301.837 109.583 301.325 109.955C300.813 110.327 300.181 110.513 299.429 110.513ZM307.457 110.333C307.009 110.417 306.569 110.453 306.137 110.441C305.709 110.433 305.325 110.359 304.985 110.219C304.649 110.075 304.393 109.845 304.217 109.529C304.057 109.233 303.973 108.933 303.965 108.629C303.957 108.321 303.953 107.973 303.953 107.585V102.053H305.585V107.489C305.585 107.741 305.587 107.969 305.591 108.173C305.599 108.373 305.641 108.533 305.717 108.653C305.861 108.881 306.091 109.005 306.407 109.025C306.723 109.045 307.073 109.029 307.457 108.977V110.333ZM302.849 105.113V103.853H307.457V105.113H302.849ZM311.303 110.333V101.693H312.767L315.623 107.429L318.479 101.693H319.943V110.333H318.419V105.173L315.911 110.333H315.335L312.827 105.173V110.333H311.303ZM323.428 110.513C322.964 110.513 322.57 110.425 322.246 110.249C321.926 110.069 321.682 109.831 321.514 109.535C321.35 109.235 321.268 108.905 321.268 108.545C321.268 108.245 321.314 107.971 321.406 107.723C321.498 107.475 321.646 107.257 321.85 107.069C322.058 106.877 322.336 106.717 322.684 106.589C322.924 106.501 323.21 106.423 323.542 106.355C323.874 106.287 324.25 106.223 324.67 106.163C325.09 106.099 325.552 106.029 326.056 105.953L325.468 106.277C325.468 105.893 325.376 105.611 325.192 105.431C325.008 105.251 324.7 105.161 324.268 105.161C324.028 105.161 323.778 105.219 323.518 105.335C323.258 105.451 323.076 105.657 322.972 105.953L321.496 105.485C321.66 104.949 321.968 104.513 322.42 104.177C322.872 103.841 323.488 103.673 324.268 103.673C324.84 103.673 325.348 103.761 325.792 103.937C326.236 104.113 326.572 104.417 326.8 104.849C326.928 105.089 327.004 105.329 327.028 105.569C327.052 105.809 327.064 106.077 327.064 106.373V110.333H325.636V109.001L325.84 109.277C325.524 109.713 325.182 110.029 324.814 110.225C324.45 110.417 323.988 110.513 323.428 110.513ZM323.776 109.229C324.076 109.229 324.328 109.177 324.532 109.073C324.74 108.965 324.904 108.843 325.024 108.707C325.148 108.571 325.232 108.457 325.276 108.365C325.36 108.189 325.408 107.985 325.42 107.753C325.436 107.517 325.444 107.321 325.444 107.165L325.924 107.285C325.44 107.365 325.048 107.433 324.748 107.489C324.448 107.541 324.206 107.589 324.022 107.633C323.838 107.677 323.676 107.725 323.536 107.777C323.376 107.841 323.246 107.911 323.146 107.987C323.05 108.059 322.978 108.139 322.93 108.227C322.886 108.315 322.864 108.413 322.864 108.521C322.864 108.669 322.9 108.797 322.972 108.905C323.048 109.009 323.154 109.089 323.29 109.145C323.426 109.201 323.588 109.229 323.776 109.229ZM333.04 110.333V107.273C333.04 107.125 333.032 106.937 333.016 106.709C333 106.477 332.95 106.245 332.866 106.013C332.782 105.781 332.644 105.587 332.452 105.431C332.264 105.275 331.996 105.197 331.648 105.197C331.508 105.197 331.358 105.219 331.198 105.263C331.038 105.307 330.888 105.393 330.748 105.521C330.608 105.645 330.492 105.829 330.4 106.073C330.312 106.317 330.268 106.641 330.268 107.045L329.332 106.601C329.332 106.089 329.436 105.609 329.644 105.161C329.852 104.713 330.164 104.351 330.58 104.075C331 103.799 331.528 103.661 332.164 103.661C332.672 103.661 333.086 103.747 333.406 103.919C333.726 104.091 333.974 104.309 334.15 104.573C334.33 104.837 334.458 105.113 334.534 105.401C334.61 105.685 334.656 105.945 334.672 106.181C334.688 106.417 334.696 106.589 334.696 106.697V110.333H333.04ZM328.612 110.333V103.853H330.064V106.001H330.268V110.333H328.612ZM338.053 110.513C337.589 110.513 337.195 110.425 336.871 110.249C336.551 110.069 336.307 109.831 336.139 109.535C335.975 109.235 335.893 108.905 335.893 108.545C335.893 108.245 335.939 107.971 336.031 107.723C336.123 107.475 336.271 107.257 336.475 107.069C336.683 106.877 336.961 106.717 337.309 106.589C337.549 106.501 337.835 106.423 338.167 106.355C338.499 106.287 338.875 106.223 339.295 106.163C339.715 106.099 340.177 106.029 340.681 105.953L340.093 106.277C340.093 105.893 340.001 105.611 339.817 105.431C339.633 105.251 339.325 105.161 338.893 105.161C338.653 105.161 338.403 105.219 338.143 105.335C337.883 105.451 337.701 105.657 337.597 105.953L336.121 105.485C336.285 104.949 336.593 104.513 337.045 104.177C337.497 103.841 338.113 103.673 338.893 103.673C339.465 103.673 339.973 103.761 340.417 103.937C340.861 104.113 341.197 104.417 341.425 104.849C341.553 105.089 341.629 105.329 341.653 105.569C341.677 105.809 341.689 106.077 341.689 106.373V110.333H340.261V109.001L340.465 109.277C340.149 109.713 339.807 110.029 339.439 110.225C339.075 110.417 338.613 110.513 338.053 110.513ZM338.401 109.229C338.701 109.229 338.953 109.177 339.157 109.073C339.365 108.965 339.529 108.843 339.649 108.707C339.773 108.571 339.857 108.457 339.901 108.365C339.985 108.189 340.033 107.985 340.045 107.753C340.061 107.517 340.069 107.321 340.069 107.165L340.549 107.285C340.065 107.365 339.673 107.433 339.373 107.489C339.073 107.541 338.831 107.589 338.647 107.633C338.463 107.677 338.301 107.725 338.161 107.777C338.001 107.841 337.871 107.911 337.771 107.987C337.675 108.059 337.603 108.139 337.555 108.227C337.511 108.315 337.489 108.413 337.489 108.521C337.489 108.669 337.525 108.797 337.597 108.905C337.673 109.009 337.779 109.089 337.915 109.145C338.051 109.201 338.213 109.229 338.401 109.229ZM346.021 113.393C345.653 113.393 345.303 113.333 344.971 113.213C344.639 113.097 344.341 112.933 344.077 112.721C343.817 112.513 343.605 112.269 343.441 111.989L344.953 111.257C345.057 111.449 345.205 111.595 345.397 111.695C345.593 111.795 345.805 111.845 346.033 111.845C346.277 111.845 346.507 111.803 346.723 111.719C346.939 111.639 347.111 111.517 347.239 111.353C347.371 111.193 347.433 110.993 347.425 110.753V108.869H347.629V103.853H349.057V110.777C349.057 110.937 349.049 111.087 349.033 111.227C349.021 111.371 348.997 111.513 348.961 111.653C348.857 112.049 348.663 112.375 348.379 112.631C348.099 112.887 347.755 113.077 347.347 113.201C346.939 113.329 346.497 113.393 346.021 113.393ZM345.877 110.513C345.281 110.513 344.759 110.363 344.311 110.063C343.863 109.763 343.513 109.355 343.261 108.839C343.013 108.323 342.889 107.741 342.889 107.093C342.889 106.433 343.015 105.847 343.267 105.335C343.523 104.819 343.881 104.413 344.341 104.117C344.801 103.821 345.341 103.673 345.961 103.673C346.577 103.673 347.095 103.823 347.515 104.123C347.935 104.423 348.253 104.831 348.469 105.347C348.685 105.863 348.793 106.445 348.793 107.093C348.793 107.741 348.683 108.323 348.463 108.839C348.247 109.355 347.923 109.763 347.491 110.063C347.059 110.363 346.521 110.513 345.877 110.513ZM346.141 109.061C346.505 109.061 346.795 108.979 347.011 108.815C347.231 108.651 347.389 108.421 347.485 108.125C347.581 107.829 347.629 107.485 347.629 107.093C347.629 106.701 347.581 106.357 347.485 106.061C347.389 105.765 347.235 105.535 347.023 105.371C346.815 105.207 346.541 105.125 346.201 105.125C345.837 105.125 345.537 105.215 345.301 105.395C345.069 105.571 344.897 105.809 344.785 106.109C344.673 106.405 344.617 106.733 344.617 107.093C344.617 107.457 344.671 107.789 344.779 108.089C344.887 108.385 345.053 108.621 345.277 108.797C345.501 108.973 345.789 109.061 346.141 109.061ZM353.749 110.513C353.085 110.513 352.499 110.371 351.991 110.087C351.487 109.799 351.091 109.405 350.803 108.905C350.519 108.401 350.377 107.825 350.377 107.177C350.377 106.469 350.517 105.853 350.797 105.329C351.077 104.805 351.463 104.399 351.955 104.111C352.447 103.819 353.013 103.673 353.653 103.673C354.333 103.673 354.911 103.833 355.387 104.153C355.863 104.473 356.215 104.923 356.443 105.503C356.671 106.083 356.751 106.765 356.683 107.549H355.069V106.949C355.069 106.289 354.963 105.815 354.751 105.527C354.543 105.235 354.201 105.089 353.725 105.089C353.169 105.089 352.759 105.259 352.495 105.599C352.235 105.935 352.105 106.433 352.105 107.093C352.105 107.697 352.235 108.165 352.495 108.497C352.759 108.825 353.145 108.989 353.653 108.989C353.973 108.989 354.247 108.919 354.475 108.779C354.703 108.639 354.877 108.437 354.997 108.173L356.629 108.641C356.385 109.233 355.999 109.693 355.471 110.021C354.947 110.349 354.373 110.513 353.749 110.513ZM351.601 107.549V106.337H355.897V107.549H351.601ZM358.038 110.333V103.853H359.478V105.437L359.322 105.233C359.406 105.009 359.518 104.805 359.658 104.621C359.798 104.437 359.97 104.285 360.174 104.165C360.33 104.069 360.5 103.995 360.684 103.943C360.868 103.887 361.058 103.853 361.254 103.841C361.45 103.825 361.646 103.829 361.842 103.853V105.377C361.662 105.321 361.452 105.303 361.212 105.323C360.976 105.339 360.762 105.393 360.57 105.485C360.378 105.573 360.216 105.691 360.084 105.839C359.952 105.983 359.852 106.155 359.784 106.355C359.716 106.551 359.682 106.773 359.682 107.021V110.333H358.038Z" fill="black"/>
</g>
<defs>
<filter id="filter0_b_137_1506" x="-5.4093" y="-5.95349" width="432.819" height="203.907" filterUnits="userSpaceOnUse" color-interpolation-filters="sRGB">
<feFlood flood-opacity="0" result="BackgroundImageFix"/>
<feGaussianBlur in="BackgroundImageFix" stdDeviation="2.97674"/>
<feComposite in2="SourceAlpha" operator="in" result="effect1_backgroundBlur_137_1506"/>
<feBlend mode="normal" in="SourceGraphic" in2="effect1_backgroundBlur_137_1506" result="shape"/>
</filter>
</defs>
</svg>
