<svg width="312" height="195" viewBox="0 0 312 195" fill="none" xmlns="http://www.w3.org/2000/svg">
<g filter="url(#filter0_b_137_1542)">
<g clip-path="url(#clip0_137_1542)">
<rect width="312" height="195" rx="11.907" fill="black" fill-opacity="0.7"/>
<path d="M22.762 30V23.1416H24.0575V28.7903H27.0105V30H22.762ZM29.2491 30.1429C28.8808 30.1429 28.568 30.073 28.3108 29.9333C28.0568 29.7904 27.8631 29.6015 27.7298 29.3665C27.5996 29.1284 27.5345 28.8665 27.5345 28.5807C27.5345 28.3425 27.571 28.125 27.6441 27.9282C27.7171 27.7313 27.8346 27.5583 27.9965 27.409C28.1616 27.2566 28.3823 27.1296 28.6585 27.028C28.849 26.9582 29.0761 26.8962 29.3396 26.8423C29.6032 26.7883 29.9016 26.7375 30.235 26.6899C30.5684 26.6391 30.9351 26.5835 31.3352 26.5232L30.8685 26.7804C30.8685 26.4755 30.7954 26.2517 30.6494 26.1088C30.5033 25.9659 30.2588 25.8945 29.9159 25.8945C29.7254 25.8945 29.5269 25.9405 29.3206 26.0326C29.1142 26.1247 28.9697 26.2882 28.8871 26.5232L27.7155 26.1517C27.8457 25.7262 28.0902 25.3801 28.449 25.1134C28.8078 24.8467 29.2967 24.7133 29.9159 24.7133C30.37 24.7133 30.7732 24.7832 31.1257 24.9229C31.4781 25.0626 31.7448 25.3039 31.9258 25.6468C32.0274 25.8373 32.0877 26.0278 32.1068 26.2183C32.1258 26.4089 32.1354 26.6216 32.1354 26.8566V30H31.0018V28.9427L31.1638 29.1617C30.9129 29.5078 30.6414 29.7587 30.3493 29.9143C30.0604 30.0667 29.6936 30.1429 29.2491 30.1429ZM29.5254 29.1236C29.7635 29.1236 29.9635 29.0824 30.1255 28.9998C30.2906 28.9141 30.4208 28.8172 30.516 28.7093C30.6145 28.6013 30.6811 28.5108 30.7161 28.4378C30.7827 28.2981 30.8208 28.1362 30.8304 27.952C30.8431 27.7647 30.8494 27.6091 30.8494 27.4852L31.2304 27.5805C30.8462 27.644 30.5351 27.698 30.2969 27.7424C30.0588 27.7837 29.8667 27.8218 29.7206 27.8567C29.5746 27.8917 29.446 27.9298 29.3348 27.9711C29.2078 28.0219 29.1046 28.0774 29.0253 28.1377C28.9491 28.1949 28.8919 28.2584 28.8538 28.3283C28.8189 28.3981 28.8014 28.4759 28.8014 28.5616C28.8014 28.6791 28.83 28.7807 28.8871 28.8665C28.9475 28.949 29.0316 29.0125 29.1396 29.057C29.2475 29.1014 29.3761 29.1236 29.5254 29.1236ZM35.2884 30.1524C34.8852 30.1524 34.5565 30.0841 34.3025 29.9476C34.0485 29.8111 33.85 29.638 33.7072 29.4285C33.5675 29.2189 33.4674 29.0014 33.4071 28.776C33.3468 28.5473 33.3103 28.3394 33.2976 28.152C33.2849 27.9647 33.2785 27.8282 33.2785 27.7424V24.8562H34.593V27.2852C34.593 27.4027 34.5994 27.5535 34.6121 27.7377C34.6248 27.9187 34.6645 28.1012 34.7312 28.2854C34.7978 28.4696 34.9058 28.6236 35.055 28.7474C35.2074 28.8712 35.4218 28.9331 35.698 28.9331C35.8091 28.9331 35.9282 28.9157 36.0552 28.8807C36.1822 28.8458 36.3013 28.7791 36.4124 28.6807C36.5236 28.5791 36.6141 28.4315 36.6839 28.2378C36.7569 28.0409 36.7935 27.7837 36.7935 27.4662L37.5364 27.8186C37.5364 28.2251 37.4539 28.6061 37.2888 28.9617C37.1237 29.3173 36.8744 29.6047 36.541 29.8238C36.2108 30.0429 35.7933 30.1524 35.2884 30.1524ZM36.9554 30V28.2949H36.7935V24.8562H38.0985V30H36.9554ZM42.935 30V27.571C42.935 27.4535 42.9286 27.3043 42.9159 27.1233C42.9032 26.9391 42.8636 26.755 42.7969 26.5708C42.7302 26.3866 42.6207 26.2326 42.4682 26.1088C42.319 25.985 42.1063 25.9231 41.83 25.9231C41.7189 25.9231 41.5998 25.9405 41.4728 25.9754C41.3458 26.0104 41.2267 26.0786 41.1156 26.1802C41.0045 26.2787 40.9124 26.4247 40.8394 26.6184C40.7695 26.8121 40.7346 27.0693 40.7346 27.39L39.9916 27.0375C39.9916 26.6311 40.0741 26.2501 40.2393 25.8945C40.4044 25.5389 40.652 25.2515 40.9823 25.0324C41.3156 24.8133 41.7348 24.7038 42.2396 24.7038C42.6429 24.7038 42.9715 24.772 43.2255 24.9086C43.4795 25.0451 43.6764 25.2182 43.8161 25.4277C43.959 25.6373 44.0606 25.8564 44.1209 26.085C44.1813 26.3104 44.2178 26.5168 44.2305 26.7041C44.2432 26.8915 44.2495 27.028 44.2495 27.1137V30H42.935ZM39.4201 30V24.8562H40.5727V26.5613H40.7346V30H39.4201ZM47.6595 30.1429C47.126 30.1429 46.6688 30.0238 46.2878 29.7857C45.9068 29.5475 45.6146 29.2237 45.4114 28.8141C45.2082 28.4045 45.1066 27.9425 45.1066 27.4281C45.1066 26.9074 45.2114 26.4422 45.421 26.0326C45.6337 25.623 45.9322 25.3007 46.3164 25.0657C46.7006 24.8308 47.1546 24.7133 47.6785 24.7133C48.285 24.7133 48.793 24.8673 49.2026 25.1753C49.6154 25.4801 49.8789 25.8976 49.9932 26.4279L48.6978 26.7708C48.6215 26.5041 48.4882 26.2961 48.2977 26.1469C48.1103 25.9977 47.8976 25.9231 47.6595 25.9231C47.3864 25.9231 47.1625 25.9897 46.9879 26.1231C46.8133 26.2533 46.6847 26.4327 46.6021 26.6613C46.5196 26.8867 46.4783 27.1423 46.4783 27.4281C46.4783 27.8758 46.5767 28.2394 46.7736 28.5188C46.9736 28.795 47.2689 28.9331 47.6595 28.9331C47.9516 28.9331 48.1738 28.8665 48.3263 28.7331C48.4787 28.5997 48.593 28.4092 48.6692 28.1616L49.9932 28.4378C49.8472 28.9839 49.5709 29.4047 49.1645 29.6999C48.7581 29.9952 48.2564 30.1429 47.6595 30.1429ZM54.4513 30V27.571C54.4513 27.4535 54.4449 27.3043 54.4322 27.1233C54.4195 26.9391 54.3798 26.755 54.3132 26.5708C54.2465 26.3866 54.1369 26.2326 53.9845 26.1088C53.8353 25.985 53.6226 25.9231 53.3463 25.9231C53.2352 25.9231 53.1161 25.9405 52.9891 25.9754C52.8621 26.0104 52.743 26.0786 52.6319 26.1802C52.5208 26.2787 52.4287 26.4247 52.3556 26.6184C52.2858 26.8121 52.2509 27.0693 52.2509 27.39L51.5079 27.0375C51.5079 26.6311 51.5904 26.2501 51.7555 25.8945C51.9206 25.5389 52.1683 25.2515 52.4985 25.0324C52.8319 24.8133 53.2511 24.7038 53.7559 24.7038C54.1592 24.7038 54.4878 24.772 54.7418 24.9086C54.9958 25.0451 55.1927 25.2182 55.3324 25.4277C55.4753 25.6373 55.5769 25.8564 55.6372 26.085C55.6975 26.3104 55.7341 26.5168 55.7468 26.7041C55.7595 26.8915 55.7658 27.028 55.7658 27.1137V30H54.4513ZM50.9363 30V23.1416H52.0889V26.666H52.2509V30H50.9363ZM61.6996 30.1429C61.1472 30.1429 60.6614 30.0318 60.2422 29.8095C59.8231 29.584 59.4961 29.2681 59.2611 28.8617C59.0261 28.4553 58.9087 27.9774 58.9087 27.4281V23.1511L60.2232 23.1416V27.4186C60.2232 27.644 60.2613 27.8488 60.3375 28.033C60.4137 28.2171 60.5185 28.3759 60.6518 28.5092C60.7884 28.6426 60.9455 28.7458 61.1234 28.8188C61.3043 28.8887 61.4964 28.9236 61.6996 28.9236C61.9092 28.9236 62.1029 28.8871 62.2807 28.8141C62.4617 28.741 62.6189 28.6378 62.7522 28.5045C62.8856 28.3711 62.9888 28.2124 63.0618 28.0282C63.138 27.844 63.1761 27.6408 63.1761 27.4186V23.1416H64.4906V27.4281C64.4906 27.9774 64.3732 28.4553 64.1382 28.8617C63.9032 29.2681 63.5762 29.584 63.1571 29.8095C62.7379 30.0318 62.2521 30.1429 61.6996 30.1429ZM68.3446 30.1429C67.8334 30.1429 67.4063 30.0238 67.0634 29.7857C66.7205 29.5475 66.4617 29.2237 66.287 28.8141C66.1156 28.4045 66.0298 27.9425 66.0298 27.4281C66.0298 26.9137 66.1156 26.4517 66.287 26.0421C66.4585 25.6325 66.7109 25.3087 67.0443 25.0705C67.3777 24.8324 67.7889 24.7133 68.2779 24.7133C68.77 24.7133 69.1987 24.8308 69.5638 25.0657C69.929 25.3007 70.2116 25.623 70.4116 26.0326C70.6148 26.439 70.7164 26.9042 70.7164 27.4281C70.7164 27.9425 70.6164 28.4045 70.4164 28.8141C70.2195 29.2237 69.9433 29.5475 69.5877 29.7857C69.232 30.0238 68.8177 30.1429 68.3446 30.1429ZM65.8108 32.2861V24.8562H66.9538V28.3807H67.1158V32.2861H65.8108ZM68.135 28.9903C68.4144 28.9903 68.643 28.9204 68.8208 28.7807C68.9987 28.641 69.1304 28.4537 69.2162 28.2187C69.3019 27.9806 69.3447 27.717 69.3447 27.4281C69.3447 27.1423 69.3003 26.882 69.2114 26.647C69.1225 26.4089 68.9844 26.2199 68.797 26.0802C68.6129 25.9373 68.3763 25.8659 68.0874 25.8659C67.8175 25.8659 67.5984 25.931 67.4301 26.0612C67.265 26.1914 67.1443 26.3739 67.0681 26.6089C66.9919 26.8439 66.9538 27.1169 66.9538 27.4281C66.9538 27.7393 66.9919 28.0123 67.0681 28.2473C67.1443 28.4823 67.2682 28.6648 67.4396 28.795C67.6143 28.9252 67.8461 28.9903 68.135 28.9903ZM73.8506 30.1429C73.3775 30.1429 72.9631 30.0238 72.6075 29.7857C72.2519 29.5475 71.974 29.2237 71.774 28.8141C71.5771 28.4045 71.4787 27.9425 71.4787 27.4281C71.4787 26.9042 71.5787 26.439 71.7788 26.0326C71.982 25.623 72.2662 25.3007 72.6313 25.0657C72.9964 24.8308 73.4251 24.7133 73.9173 24.7133C74.4062 24.7133 74.8174 24.8324 75.1508 25.0705C75.4842 25.3087 75.7366 25.6325 75.9081 26.0421C76.0796 26.4517 76.1653 26.9137 76.1653 27.4281C76.1653 27.9425 76.078 28.4045 75.9033 28.8141C75.7319 29.2237 75.4747 29.5475 75.1318 29.7857C74.7888 30.0238 74.3618 30.1429 73.8506 30.1429ZM74.0601 28.9903C74.3491 28.9903 74.5793 28.9252 74.7507 28.795C74.9254 28.6648 75.0508 28.4823 75.127 28.2473C75.2032 28.0123 75.2413 27.7393 75.2413 27.4281C75.2413 27.1169 75.2032 26.8439 75.127 26.6089C75.0508 26.3739 74.9286 26.1914 74.7603 26.0612C74.5952 25.931 74.3777 25.8659 74.1078 25.8659C73.8188 25.8659 73.5807 25.9373 73.3933 26.0802C73.2092 26.2199 73.0726 26.4089 72.9837 26.647C72.8948 26.882 72.8504 27.1423 72.8504 27.4281C72.8504 27.717 72.8933 27.9806 72.979 28.2187C73.0647 28.4537 73.1965 28.641 73.3743 28.7807C73.5521 28.9204 73.7807 28.9903 74.0601 28.9903ZM75.2413 30V26.4755H75.0794V23.1416H76.3844V30H75.2413ZM79.1468 30.1429C78.7785 30.1429 78.4657 30.073 78.2085 29.9333C77.9545 29.7904 77.7608 29.6015 77.6275 29.3665C77.4973 29.1284 77.4322 28.8665 77.4322 28.5807C77.4322 28.3425 77.4687 28.125 77.5417 27.9282C77.6148 27.7313 77.7322 27.5583 77.8942 27.409C78.0593 27.2566 78.28 27.1296 78.5562 27.028C78.7467 26.9582 78.9737 26.8962 79.2373 26.8423C79.5008 26.7883 79.7993 26.7375 80.1327 26.6899C80.4661 26.6391 80.8328 26.5835 81.2329 26.5232L80.7661 26.7804C80.7661 26.4755 80.6931 26.2517 80.5471 26.1088C80.401 25.9659 80.1565 25.8945 79.8136 25.8945C79.6231 25.8945 79.4246 25.9405 79.2182 26.0326C79.0118 26.1247 78.8674 26.2882 78.7848 26.5232L77.6132 26.1517C77.7434 25.7262 77.9878 25.3801 78.3466 25.1134C78.7054 24.8467 79.1944 24.7133 79.8136 24.7133C80.2676 24.7133 80.6709 24.7832 81.0233 24.9229C81.3758 25.0626 81.6425 25.3039 81.8235 25.6468C81.9251 25.8373 81.9854 26.0278 82.0045 26.2183C82.0235 26.4089 82.033 26.6216 82.033 26.8566V30H80.8995V28.9427L81.0614 29.1617C80.8106 29.5078 80.5391 29.7587 80.247 29.9143C79.9581 30.0667 79.5913 30.1429 79.1468 30.1429ZM79.423 29.1236C79.6612 29.1236 79.8612 29.0824 80.0231 28.9998C80.1883 28.9141 80.3184 28.8172 80.4137 28.7093C80.5121 28.6013 80.5788 28.5108 80.6137 28.4378C80.6804 28.2981 80.7185 28.1362 80.728 27.952C80.7407 27.7647 80.7471 27.6091 80.7471 27.4852L81.1281 27.5805C80.7439 27.644 80.4327 27.698 80.1946 27.7424C79.9565 27.7837 79.7644 27.8218 79.6183 27.8567C79.4723 27.8917 79.3437 27.9298 79.2325 27.9711C79.1055 28.0219 79.0023 28.0774 78.9229 28.1377C78.8467 28.1949 78.7896 28.2584 78.7515 28.3283C78.7166 28.3981 78.6991 28.4759 78.6991 28.5616C78.6991 28.6791 78.7277 28.7807 78.7848 28.8665C78.8452 28.949 78.9293 29.0125 79.0373 29.057C79.1452 29.1014 79.2738 29.1236 79.423 29.1236ZM86.3577 30C86.0021 30.0667 85.6528 30.0953 85.3099 30.0857C84.9702 30.0794 84.6654 30.0206 84.3955 29.9095C84.1287 29.7952 83.9255 29.6126 83.7858 29.3618C83.6588 29.1268 83.5921 28.8887 83.5858 28.6474C83.5794 28.4029 83.5763 28.1266 83.5763 27.8186V23.4273H84.8717V27.7424C84.8717 27.9425 84.8733 28.1235 84.8765 28.2854C84.8829 28.4442 84.9162 28.5712 84.9765 28.6664C85.0908 28.8474 85.2734 28.9458 85.5242 28.9617C85.7751 28.9776 86.0529 28.9649 86.3577 28.9236V30ZM82.6999 25.8564V24.8562H86.3577V25.8564H82.6999ZM89.6159 30.1429C89.0888 30.1429 88.6236 30.0302 88.2204 29.8047C87.8203 29.5761 87.5059 29.2634 87.2773 28.8665C87.0519 28.4664 86.9392 28.0092 86.9392 27.4948C86.9392 26.9328 87.0503 26.4438 87.2726 26.0278C87.4948 25.6119 87.8012 25.2896 88.1918 25.061C88.5823 24.8292 89.0316 24.7133 89.5397 24.7133C90.0794 24.7133 90.5382 24.8403 90.9161 25.0943C91.2939 25.3483 91.5734 25.7055 91.7543 26.166C91.9353 26.6264 91.9988 27.1677 91.9449 27.7901H90.6637V27.3138C90.6637 26.7899 90.5795 26.4136 90.4112 26.185C90.2461 25.9532 89.9747 25.8373 89.5968 25.8373C89.1555 25.8373 88.83 25.9723 88.6204 26.2422C88.414 26.5089 88.3109 26.9042 88.3109 27.4281C88.3109 27.9075 88.414 28.279 88.6204 28.5426C88.83 28.803 89.1364 28.9331 89.5397 28.9331C89.7937 28.9331 90.0112 28.8776 90.1922 28.7664C90.3731 28.6553 90.5113 28.495 90.6065 28.2854L91.902 28.6569C91.7083 29.1268 91.4019 29.492 90.9828 29.7523C90.5668 30.0127 90.1112 30.1429 89.6159 30.1429ZM87.9108 27.7901V26.828H91.3209V27.7901H87.9108Z" fill="white"/>
<rect x="209" y="18" width="80.4919" height="16.5605" rx="7.70257" fill="url(#paint0_linear_137_1542)"/>
<rect x="19" y="57" width="54" height="6" rx="3" fill="white" fill-opacity="0.2"/>
<rect x="19" y="139" width="54" height="6" rx="3" fill="white" fill-opacity="0.2"/>
<rect x="19" y="83" width="54" height="6" rx="3" fill="white" fill-opacity="0.2"/>
<rect x="19" y="165" width="54" height="6" rx="3" fill="white" fill-opacity="0.2"/>
<rect x="19" y="109" width="54" height="6" rx="3" fill="#3776D5"/>
<rect x="19" y="191" width="54" height="6" rx="3" fill="white" fill-opacity="0.2"/>
<rect x="19" y="70" width="29" height="6" rx="3" fill="white" fill-opacity="0.2"/>
<rect x="19" y="152" width="29" height="6" rx="3" fill="#3776D5"/>
<rect x="19" y="96" width="29" height="6" rx="3" fill="white" fill-opacity="0.2"/>
<rect x="19" y="178" width="29" height="6" rx="3" fill="#FD8DF8"/>
<rect x="19" y="122" width="29" height="6" rx="3" fill="white" fill-opacity="0.2"/>
<rect x="77" y="57" width="35" height="6" rx="3" fill="white" fill-opacity="0.2"/>
<rect x="77" y="139" width="35" height="6" rx="3" fill="white" fill-opacity="0.2"/>
<rect x="77" y="83" width="35" height="6" rx="3" fill="#3776D5"/>
<rect x="77" y="165" width="35" height="6" rx="3" fill="white" fill-opacity="0.2"/>
<rect x="77" y="109" width="35" height="6" rx="3" fill="white" fill-opacity="0.2"/>
<rect x="77" y="191" width="35" height="6" rx="3" fill="white" fill-opacity="0.2"/>
<rect x="52" y="70" width="35" height="6" rx="3" fill="#3776D5"/>
<rect x="52" y="152" width="35" height="6" rx="3" fill="white" fill-opacity="0.2"/>
<rect x="52" y="96" width="35" height="6" rx="3" fill="#FD8DF8"/>
<rect x="52" y="178" width="35" height="6" rx="3" fill="white" fill-opacity="0.2"/>
<rect x="52" y="122" width="35" height="6" rx="3" fill="white" fill-opacity="0.2"/>
<rect x="91" y="70" width="21" height="6" rx="3" fill="white" fill-opacity="0.2"/>
<rect x="91" y="152" width="21" height="6" rx="3" fill="#FD8DF8"/>
<rect x="91" y="96" width="21" height="6" rx="3" fill="white" fill-opacity="0.2"/>
<rect x="91" y="178" width="21" height="6" rx="3" fill="white" fill-opacity="0.2"/>
<rect x="91" y="122" width="21" height="6" rx="3" fill="white" fill-opacity="0.2"/>
<rect x="116" y="57" width="54" height="6" rx="3" fill="#FD8DF8"/>
<rect x="116" y="139" width="54" height="6" rx="3" fill="#3776D5"/>
<rect x="116" y="83" width="54" height="6" rx="3" fill="#FD8DF8"/>
<rect x="116" y="165" width="54" height="6" rx="3" fill="white" fill-opacity="0.2"/>
<rect x="116" y="109" width="54" height="6" rx="3" fill="#3776D5"/>
<rect x="116" y="191" width="54" height="6" rx="3" fill="white" fill-opacity="0.2"/>
<rect x="116" y="70" width="29" height="6" rx="3" fill="white" fill-opacity="0.2"/>
<rect x="116" y="152" width="29" height="6" rx="3" fill="white" fill-opacity="0.2"/>
<rect x="116" y="96" width="29" height="6" rx="3" fill="white" fill-opacity="0.2"/>
<rect x="116" y="178" width="29" height="6" rx="3" fill="#FD8DF8"/>
<rect x="174" y="57" width="35" height="6" rx="3" fill="#3776D5"/>
<rect x="174" y="139" width="35" height="6" rx="3" fill="#3776D5"/>
<rect x="174" y="83" width="35" height="6" rx="3" fill="white" fill-opacity="0.2"/>
<rect x="174" y="165" width="35" height="6" rx="3" fill="#FD8DF8"/>
<rect x="149" y="96" width="35" height="6" rx="3" fill="white" fill-opacity="0.2"/>
<rect x="149" y="178" width="35" height="6" rx="3" fill="white" fill-opacity="0.2"/>
</g>
</g>
<path d="M217.239 29.2018L215.673 28.732L216.213 30.2753L222.047 46.942L222.853 49.2442L223.624 46.9302L226.015 39.7577L234.039 35.7454L235.919 34.8056L233.906 34.2018L217.239 29.2018Z" fill="#FD8D8D" stroke="black" stroke-width="1.66667" stroke-linecap="round"/>
<rect x="241" y="38" width="66" height="18" fill="#FD8D8D"/>
<path d="M244.507 51.3333V42.6933H247.303C247.371 42.6933 247.511 42.6953 247.723 42.6993C247.935 42.7033 248.139 42.7173 248.335 42.7413C249.031 42.8253 249.621 43.0673 250.105 43.4673C250.589 43.8673 250.957 44.3753 251.209 44.9913C251.461 45.6073 251.587 46.2813 251.587 47.0133C251.587 47.7453 251.461 48.4193 251.209 49.0353C250.957 49.6513 250.589 50.1593 250.105 50.5593C249.621 50.9593 249.031 51.2013 248.335 51.2853C248.139 51.3093 247.935 51.3233 247.723 51.3273C247.511 51.3313 247.371 51.3333 247.303 51.3333H244.507ZM246.163 49.7973H247.303C247.411 49.7973 247.557 49.7953 247.741 49.7913C247.925 49.7833 248.091 49.7653 248.239 49.7373C248.615 49.6613 248.921 49.4853 249.157 49.2093C249.397 48.9333 249.573 48.6013 249.685 48.2133C249.801 47.8253 249.859 47.4253 249.859 47.0133C249.859 46.5813 249.799 46.1713 249.679 45.7833C249.563 45.3953 249.385 45.0673 249.145 44.7993C248.905 44.5313 248.603 44.3613 248.239 44.2893C248.091 44.2573 247.925 44.2393 247.741 44.2353C247.557 44.2313 247.411 44.2293 247.303 44.2293H246.163V49.7973ZM256.038 51.5133C255.374 51.5133 254.788 51.3713 254.28 51.0873C253.776 50.7993 253.38 50.4053 253.092 49.9053C252.808 49.4013 252.666 48.8253 252.666 48.1773C252.666 47.4693 252.806 46.8533 253.086 46.3293C253.366 45.8053 253.752 45.3993 254.244 45.1113C254.736 44.8193 255.302 44.6733 255.942 44.6733C256.622 44.6733 257.2 44.8333 257.676 45.1533C258.152 45.4733 258.504 45.9233 258.732 46.5033C258.96 47.0833 259.04 47.7653 258.972 48.5493H257.358V47.9493C257.358 47.2893 257.252 46.8153 257.04 46.5273C256.832 46.2353 256.49 46.0893 256.014 46.0893C255.458 46.0893 255.048 46.2593 254.784 46.5993C254.524 46.9353 254.394 47.4333 254.394 48.0933C254.394 48.6973 254.524 49.1653 254.784 49.4973C255.048 49.8253 255.434 49.9893 255.942 49.9893C256.262 49.9893 256.536 49.9193 256.764 49.7793C256.992 49.6393 257.166 49.4373 257.286 49.1733L258.918 49.6413C258.674 50.2333 258.288 50.6933 257.76 51.0213C257.236 51.3493 256.662 51.5133 256.038 51.5133ZM253.89 48.5493V47.3373H258.186V48.5493H253.89ZM261.844 51.3333L259.492 44.8533H261.124L262.66 49.3413L264.196 44.8533H265.828L263.476 51.3333H261.844ZM269.69 51.5133C269.026 51.5133 268.44 51.3713 267.932 51.0873C267.428 50.7993 267.032 50.4053 266.744 49.9053C266.46 49.4013 266.318 48.8253 266.318 48.1773C266.318 47.4693 266.458 46.8533 266.738 46.3293C267.018 45.8053 267.404 45.3993 267.896 45.1113C268.388 44.8193 268.954 44.6733 269.594 44.6733C270.274 44.6733 270.852 44.8333 271.328 45.1533C271.804 45.4733 272.156 45.9233 272.384 46.5033C272.612 47.0833 272.692 47.7653 272.624 48.5493H271.01V47.9493C271.01 47.2893 270.904 46.8153 270.692 46.5273C270.484 46.2353 270.142 46.0893 269.666 46.0893C269.11 46.0893 268.7 46.2593 268.436 46.5993C268.176 46.9353 268.046 47.4333 268.046 48.0933C268.046 48.6973 268.176 49.1653 268.436 49.4973C268.7 49.8253 269.086 49.9893 269.594 49.9893C269.914 49.9893 270.188 49.9193 270.416 49.7793C270.644 49.6393 270.818 49.4373 270.938 49.1733L272.57 49.6413C272.326 50.2333 271.94 50.6933 271.412 51.0213C270.888 51.3493 270.314 51.5133 269.69 51.5133ZM267.542 48.5493V47.3373H271.838V48.5493H267.542ZM274.099 51.3333V42.5133H275.731V51.3333H274.099ZM280.446 51.5133C279.794 51.5133 279.222 51.3673 278.73 51.0753C278.238 50.7833 277.854 50.3813 277.578 49.8693C277.306 49.3533 277.17 48.7613 277.17 48.0933C277.17 47.4173 277.31 46.8233 277.59 46.3113C277.87 45.7953 278.256 45.3933 278.748 45.1053C279.24 44.8173 279.806 44.6733 280.446 44.6733C281.098 44.6733 281.67 44.8193 282.162 45.1113C282.658 45.4033 283.044 45.8073 283.32 46.3233C283.596 46.8353 283.734 47.4253 283.734 48.0933C283.734 48.7653 283.594 49.3593 283.314 49.8753C283.038 50.3873 282.652 50.7893 282.156 51.0813C281.664 51.3693 281.094 51.5133 280.446 51.5133ZM280.446 49.9893C280.97 49.9893 281.36 49.8133 281.616 49.4613C281.876 49.1053 282.006 48.6493 282.006 48.0933C282.006 47.5173 281.874 47.0573 281.61 46.7133C281.35 46.3693 280.962 46.1973 280.446 46.1973C280.09 46.1973 279.798 46.2773 279.57 46.4373C279.342 46.5973 279.172 46.8193 279.06 47.1033C278.952 47.3873 278.898 47.7173 278.898 48.0933C278.898 48.6733 279.028 49.1353 279.288 49.4793C279.552 49.8193 279.938 49.9893 280.446 49.9893ZM288.233 51.5133C287.589 51.5133 287.051 51.3633 286.619 51.0633C286.187 50.7633 285.861 50.3553 285.641 49.8393C285.425 49.3233 285.317 48.7413 285.317 48.0933C285.317 47.4453 285.425 46.8633 285.641 46.3473C285.857 45.8313 286.175 45.4233 286.595 45.1233C287.015 44.8233 287.533 44.6733 288.149 44.6733C288.769 44.6733 289.309 44.8213 289.769 45.1173C290.229 45.4133 290.585 45.8193 290.837 46.3353C291.093 46.8473 291.221 47.4333 291.221 48.0933C291.221 48.7413 291.095 49.3233 290.843 49.8393C290.595 50.3553 290.247 50.7633 289.799 51.0633C289.351 51.3633 288.829 51.5133 288.233 51.5133ZM285.041 54.2133V44.8533H286.481V49.2933H286.685V54.2133H285.041ZM287.969 50.0613C288.321 50.0613 288.609 49.9733 288.833 49.7973C289.057 49.6213 289.223 49.3853 289.331 49.0893C289.439 48.7893 289.493 48.4573 289.493 48.0933C289.493 47.7333 289.437 47.4053 289.325 47.1093C289.213 46.8093 289.039 46.5713 288.803 46.3953C288.571 46.2153 288.273 46.1253 287.909 46.1253C287.569 46.1253 287.293 46.2073 287.081 46.3713C286.873 46.5353 286.721 46.7653 286.625 47.0613C286.529 47.3573 286.481 47.7013 286.481 48.0933C286.481 48.4853 286.529 48.8293 286.625 49.1253C286.721 49.4213 286.877 49.6513 287.093 49.8153C287.313 49.9793 287.605 50.0613 287.969 50.0613ZM295.554 51.5133C294.89 51.5133 294.304 51.3713 293.796 51.0873C293.292 50.7993 292.896 50.4053 292.608 49.9053C292.324 49.4013 292.182 48.8253 292.182 48.1773C292.182 47.4693 292.322 46.8533 292.602 46.3293C292.882 45.8053 293.268 45.3993 293.76 45.1113C294.252 44.8193 294.818 44.6733 295.458 44.6733C296.138 44.6733 296.716 44.8333 297.192 45.1533C297.668 45.4733 298.02 45.9233 298.248 46.5033C298.476 47.0833 298.556 47.7653 298.488 48.5493H296.874V47.9493C296.874 47.2893 296.768 46.8153 296.556 46.5273C296.348 46.2353 296.006 46.0893 295.53 46.0893C294.974 46.0893 294.564 46.2593 294.3 46.5993C294.04 46.9353 293.91 47.4333 293.91 48.0933C293.91 48.6973 294.04 49.1653 294.3 49.4973C294.564 49.8253 294.95 49.9893 295.458 49.9893C295.778 49.9893 296.052 49.9193 296.28 49.7793C296.508 49.6393 296.682 49.4373 296.802 49.1733L298.434 49.6413C298.19 50.2333 297.804 50.6933 297.276 51.0213C296.752 51.3493 296.178 51.5133 295.554 51.5133ZM293.406 48.5493V47.3373H297.702V48.5493H293.406ZM299.842 51.3333V44.8533H301.282V46.4373L301.126 46.2333C301.21 46.0093 301.322 45.8053 301.462 45.6213C301.602 45.4373 301.774 45.2853 301.978 45.1653C302.134 45.0693 302.304 44.9953 302.488 44.9433C302.672 44.8873 302.862 44.8533 303.058 44.8413C303.254 44.8253 303.45 44.8293 303.646 44.8533V46.3773C303.466 46.3213 303.256 46.3033 303.016 46.3233C302.78 46.3393 302.566 46.3933 302.374 46.4853C302.182 46.5733 302.02 46.6913 301.888 46.8393C301.756 46.9833 301.656 47.1553 301.588 47.3553C301.52 47.5513 301.486 47.7733 301.486 48.0213V51.3333H299.842Z" fill="black"/>
<defs>
<filter id="filter0_b_137_1542" x="-5.95349" y="-5.95349" width="323.907" height="206.907" filterUnits="userSpaceOnUse" color-interpolation-filters="sRGB">
<feFlood flood-opacity="0" result="BackgroundImageFix"/>
<feGaussianBlur in="BackgroundImageFix" stdDeviation="2.97674"/>
<feComposite in2="SourceAlpha" operator="in" result="effect1_backgroundBlur_137_1542"/>
<feBlend mode="normal" in="SourceGraphic" in2="effect1_backgroundBlur_137_1542" result="shape"/>
</filter>
<linearGradient id="paint0_linear_137_1542" x1="289.492" y1="14.919" x2="209" y2="34.5605" gradientUnits="userSpaceOnUse">
<stop stop-color="#38D7D7"/>
<stop offset="1" stop-color="#14AE80"/>
</linearGradient>
<clipPath id="clip0_137_1542">
<rect width="312" height="195" rx="11.907" fill="white"/>
</clipPath>
</defs>
</svg>
