<svg width="395" height="237" viewBox="0 0 395 237" fill="none" xmlns="http://www.w3.org/2000/svg">
<rect x="0.692871" y="0.8125" width="355.526" height="231.318" rx="10.0573" fill="black" fill-opacity="0.7"/>
<rect x="22.0649" y="21.6299" width="52.5495" height="10.8116" rx="5.02866" fill="url(#paint0_linear_137_1709)"/>
<rect x="260.675" y="23.6414" width="33.9435" height="6.53726" rx="3.26863" fill="#5E5E5E" fill-opacity="0.5"/>
<rect x="301.91" y="23.6414" width="33.9435" height="6.53726" rx="3.26863" fill="#5E5E5E" fill-opacity="0.5"/>
<rect x="22.0649" y="51.6306" width="313.034" height="73.6699" rx="7.54299" fill="white" fill-opacity="0.1"/>
<rect x="22.0649" y="137.118" width="151.363" height="73.6699" rx="7.54299" fill="white" fill-opacity="0.1"/>
<rect x="184.994" y="137.118" width="151.363" height="73.6699" rx="7.54299" fill="white" fill-opacity="0.1"/>
<rect x="33.3354" y="64.3623" width="90.3966" height="48.1985" rx="4.935" fill="black" fill-opacity="0.5"/>
<rect x="38.4043" y="87.0002" width="21.0544" height="6.40695" rx="3.20347" fill="white" fill-opacity="0.2"/>
<rect x="38.4043" y="97.2512" width="11.307" height="6.40695" rx="3.20347" fill="white"/>
<rect x="61.0181" y="87.0002" width="13.6464" height="6.40695" rx="3.20347" fill="white" fill-opacity="0.2"/>
<rect x="51.271" y="97.2512" width="13.6464" height="6.40695" rx="3.20347" fill="white" fill-opacity="0.2"/>
<rect x="66.4771" y="97.2512" width="8.18783" height="6.40695" rx="3.20347" fill="white" fill-opacity="0.2"/>
<rect x="83.6323" y="78.8848" width="35.0907" height="26.9092" rx="4.935" fill="white" fill-opacity="0.2"/>
<rect x="49.7109" y="70.3423" width="19.4948" height="3.84417" rx="1.92208" fill="white" fill-opacity="0.2"/>
<rect x="105.466" y="70.3423" width="13.2565" height="3.84417" rx="1.92208" fill="#D76262"/>
<circle cx="42.838" cy="71.8978" r="3.26427" fill="#D76262"/>
<rect x="134.05" y="64.3623" width="90.3966" height="48.1985" rx="4.935" fill="black" fill-opacity="0.5"/>
<rect x="139.119" y="87.0002" width="21.0544" height="6.40695" rx="3.20347" fill="white" fill-opacity="0.2"/>
<rect x="139.119" y="97.2512" width="11.307" height="6.40695" rx="3.20347" fill="white"/>
<rect x="161.733" y="87.0002" width="13.6464" height="6.40695" rx="3.20347" fill="white" fill-opacity="0.2"/>
<rect x="151.985" y="97.2512" width="13.6464" height="6.40695" rx="3.20347" fill="white" fill-opacity="0.2"/>
<rect x="167.191" y="97.2512" width="8.18783" height="6.40695" rx="3.20347" fill="white" fill-opacity="0.2"/>
<rect x="184.347" y="78.8848" width="35.0907" height="26.9092" rx="4.935" fill="white" fill-opacity="0.2"/>
<rect x="150.426" y="70.3423" width="19.4948" height="3.84417" rx="1.92208" fill="white" fill-opacity="0.2"/>
<rect x="206.181" y="70.3423" width="13.2565" height="3.84417" rx="1.92208" fill="#62C2D7"/>
<circle cx="143.553" cy="71.8978" r="3.26427" fill="#62C2D7"/>
<rect x="234.765" y="64.3623" width="90.3966" height="48.1985" rx="4.935" fill="black" fill-opacity="0.5"/>
<rect x="239.834" y="87.0002" width="21.0544" height="6.40695" rx="3.20347" fill="white" fill-opacity="0.2"/>
<rect x="239.834" y="97.2512" width="11.307" height="6.40695" rx="3.20347" fill="white"/>
<rect x="262.448" y="87.0002" width="13.6464" height="6.40695" rx="3.20347" fill="white" fill-opacity="0.2"/>
<rect x="252.701" y="97.2512" width="13.6464" height="6.40695" rx="3.20347" fill="white" fill-opacity="0.2"/>
<rect x="267.906" y="97.2512" width="8.18783" height="6.40695" rx="3.20347" fill="white" fill-opacity="0.2"/>
<rect x="285.062" y="78.8848" width="35.0907" height="26.9092" rx="4.935" fill="white" fill-opacity="0.2"/>
<rect x="251.141" y="70.3423" width="19.4948" height="3.84417" rx="1.92208" fill="white" fill-opacity="0.2"/>
<rect x="306.896" y="70.3423" width="13.2565" height="3.84417" rx="1.92208" fill="#9C62D7"/>
<circle cx="244.268" cy="71.8978" r="3.26427" fill="#9C62D7"/>
<rect x="36.6001" y="149.886" width="122.084" height="48.3112" rx="4.935" fill="black" fill-opacity="0.5"/>
<rect x="42.4756" y="172.736" width="78.9954" height="5.87569" rx="2.93785" fill="white" fill-opacity="0.2"/>
<rect x="42.1528" y="182.775" width="12.3868" height="6.40695" rx="3.20347" fill="white" fill-opacity="0.2"/>
<rect x="56.248" y="182.775" width="14.9495" height="6.40695" rx="3.20347" fill="white" fill-opacity="0.2"/>
<rect x="72.9058" y="182.775" width="8.96972" height="6.40695" rx="3.20347" fill="white" fill-opacity="0.2"/>
<rect x="43.7812" y="159.026" width="73.1197" height="3.91713" rx="1.95856" fill="white" fill-opacity="0.2"/>
<circle cx="139.105" cy="164.409" r="11.1054" fill="#C9E8F2"/>
<path d="M200.793 182.203C200.793 182.203 207.884 177.038 213.197 176.327C221.598 175.203 224.967 184.493 233.436 184.161C245.208 183.7 246.277 168.349 257.918 166.534C266.367 165.217 270.917 170.785 279.462 170.451C297.663 169.74 319.939 147.275 319.939 147.275" stroke="url(#paint1_linear_137_1709)" stroke-width="1.95856" stroke-linecap="round"/>
<path d="M197.528 149.886V198.524H322.876" stroke="white" stroke-opacity="0.2" stroke-width="2"/>
<g filter="url(#filter0_b_137_1709)">
<circle cx="300.353" cy="136.622" r="41.1298" fill="url(#paint2_linear_137_1709)" fill-opacity="0.2"/>
</g>
<g filter="url(#filter1_d_137_1709)">
<path fill-rule="evenodd" clip-rule="evenodd" d="M343.146 169.17L379.322 205.346C380.594 206.618 381.308 208.344 381.307 210.143C381.306 211.942 380.591 213.667 379.319 214.938C378.046 216.21 376.321 216.924 374.522 216.923C372.723 216.922 370.998 216.207 369.727 214.935L333.551 178.758C322.737 187.135 309.138 191.076 295.521 189.782C281.903 188.487 269.291 182.053 260.248 171.789C251.206 161.525 246.414 148.202 246.846 134.53C247.278 120.858 252.902 107.864 262.574 98.191C272.247 88.5185 285.24 82.894 298.912 82.4619C312.584 82.0298 325.907 86.8225 336.171 95.8649C346.435 104.907 352.868 117.52 354.163 131.138C355.457 144.756 351.516 158.355 343.14 169.17H343.146ZM300.617 176.573C311.317 176.573 321.578 172.322 329.144 164.756C336.711 157.19 340.961 146.928 340.961 136.227C340.961 125.527 336.711 115.265 329.144 107.699C321.578 100.133 311.317 95.8819 300.617 95.8819C289.917 95.8819 279.655 100.133 272.089 107.699C264.523 115.265 260.272 125.527 260.272 136.227C260.272 146.928 264.523 157.19 272.089 164.756C279.655 172.322 289.917 176.573 300.617 176.573Z" fill="url(#paint3_linear_137_1709)"/>
</g>
<path d="M50.2395 191.202L48.6733 190.732L49.2135 192.275L55.0468 208.942L55.8526 211.244L56.6239 208.93L59.0147 201.758L67.0393 197.745L68.9188 196.806L66.9061 196.202L50.2395 191.202Z" fill="#8DFDD5" stroke="black" stroke-width="1.66667" stroke-linecap="round"/>
<rect x="73" y="200" width="77" height="18" fill="#8DFDD5"/>
<path d="M81.2145 213.513C80.3505 213.513 79.6045 213.325 78.9765 212.949C78.3525 212.573 77.8705 212.047 77.5305 211.371C77.1945 210.695 77.0265 209.909 77.0265 209.013C77.0265 208.117 77.1945 207.331 77.5305 206.655C77.8705 205.979 78.3525 205.453 78.9765 205.077C79.6045 204.701 80.3505 204.513 81.2145 204.513C82.2065 204.513 83.0385 204.759 83.7105 205.251C84.3865 205.743 84.8625 206.409 85.1385 207.249L83.4945 207.705C83.3345 207.181 83.0645 206.775 82.6845 206.487C82.3045 206.195 81.8145 206.049 81.2145 206.049C80.6665 206.049 80.2085 206.171 79.8405 206.415C79.4765 206.659 79.2025 207.003 79.0185 207.447C78.8345 207.891 78.7425 208.413 78.7425 209.013C78.7425 209.613 78.8345 210.135 79.0185 210.579C79.2025 211.023 79.4765 211.367 79.8405 211.611C80.2085 211.855 80.6665 211.977 81.2145 211.977C81.8145 211.977 82.3045 211.831 82.6845 211.539C83.0645 211.247 83.3345 210.841 83.4945 210.321L85.1385 210.777C84.8625 211.617 84.3865 212.283 83.7105 212.775C83.0385 213.267 82.2065 213.513 81.2145 213.513ZM86.5796 213.333V204.513H88.2116V213.333H86.5796ZM90.1304 205.953V204.513H91.7624V205.953H90.1304ZM90.1304 213.333V206.853H91.7624V213.333H90.1304ZM96.5732 213.513C95.9092 213.513 95.3232 213.371 94.8152 213.087C94.3112 212.799 93.9152 212.405 93.6272 211.905C93.3432 211.401 93.2012 210.825 93.2012 210.177C93.2012 209.469 93.3412 208.853 93.6212 208.329C93.9012 207.805 94.2872 207.399 94.7792 207.111C95.2712 206.819 95.8372 206.673 96.4772 206.673C97.1572 206.673 97.7352 206.833 98.2112 207.153C98.6872 207.473 99.0392 207.923 99.2672 208.503C99.4952 209.083 99.5752 209.765 99.5072 210.549H97.8932V209.949C97.8932 209.289 97.7872 208.815 97.5752 208.527C97.3672 208.235 97.0252 208.089 96.5492 208.089C95.9932 208.089 95.5832 208.259 95.3192 208.599C95.0592 208.935 94.9292 209.433 94.9292 210.093C94.9292 210.697 95.0592 211.165 95.3192 211.497C95.5832 211.825 95.9692 211.989 96.4772 211.989C96.7972 211.989 97.0712 211.919 97.2992 211.779C97.5272 211.639 97.7012 211.437 97.8212 211.173L99.4532 211.641C99.2092 212.233 98.8232 212.693 98.2952 213.021C97.7712 213.349 97.1972 213.513 96.5732 213.513ZM94.4252 210.549V209.337H98.7212V210.549H94.4252ZM105.102 213.333V210.273C105.102 210.125 105.094 209.937 105.078 209.709C105.062 209.477 105.012 209.245 104.928 209.013C104.844 208.781 104.706 208.587 104.514 208.431C104.326 208.275 104.058 208.197 103.71 208.197C103.57 208.197 103.42 208.219 103.26 208.263C103.1 208.307 102.95 208.393 102.81 208.521C102.67 208.645 102.554 208.829 102.462 209.073C102.374 209.317 102.33 209.641 102.33 210.045L101.394 209.601C101.394 209.089 101.498 208.609 101.706 208.161C101.914 207.713 102.226 207.351 102.642 207.075C103.062 206.799 103.59 206.661 104.226 206.661C104.734 206.661 105.148 206.747 105.468 206.919C105.788 207.091 106.036 207.309 106.212 207.573C106.392 207.837 106.52 208.113 106.596 208.401C106.672 208.685 106.718 208.945 106.734 209.181C106.75 209.417 106.758 209.589 106.758 209.697V213.333H105.102ZM100.674 213.333V206.853H102.126V209.001H102.33V213.333H100.674ZM112.203 213.333C111.755 213.417 111.315 213.453 110.883 213.441C110.455 213.433 110.071 213.359 109.731 213.219C109.395 213.075 109.139 212.845 108.963 212.529C108.803 212.233 108.719 211.933 108.711 211.629C108.703 211.321 108.699 210.973 108.699 210.585V205.053H110.331V210.489C110.331 210.741 110.333 210.969 110.337 211.173C110.345 211.373 110.387 211.533 110.463 211.653C110.607 211.881 110.837 212.005 111.153 212.025C111.469 212.045 111.819 212.029 112.203 211.977V213.333ZM107.595 208.113V206.853H112.203V208.113H107.595ZM119.061 215.661C118.597 215.117 118.199 214.499 117.867 213.807C117.539 213.115 117.289 212.391 117.117 211.635C116.949 210.875 116.873 210.121 116.889 209.373C116.873 208.625 116.949 207.871 117.117 207.111C117.289 206.351 117.539 205.627 117.867 204.939C118.199 204.247 118.597 203.629 119.061 203.085L120.273 203.973C119.785 204.561 119.403 205.149 119.127 205.737C118.851 206.321 118.655 206.915 118.539 207.519C118.427 208.119 118.369 208.737 118.365 209.373C118.369 210.009 118.427 210.629 118.539 211.233C118.655 211.833 118.851 212.427 119.127 213.015C119.403 213.599 119.785 214.185 120.273 214.773L119.061 215.661ZM123.704 213.333V209.817L120.752 204.693H122.66L124.532 207.945L126.404 204.693H128.312L125.36 209.817V213.333H123.704ZM131.106 213.513C130.454 213.513 129.882 213.367 129.39 213.075C128.898 212.783 128.514 212.381 128.238 211.869C127.966 211.353 127.83 210.761 127.83 210.093C127.83 209.417 127.97 208.823 128.25 208.311C128.53 207.795 128.916 207.393 129.408 207.105C129.9 206.817 130.466 206.673 131.106 206.673C131.758 206.673 132.33 206.819 132.822 207.111C133.318 207.403 133.704 207.807 133.98 208.323C134.256 208.835 134.394 209.425 134.394 210.093C134.394 210.765 134.254 211.359 133.974 211.875C133.698 212.387 133.312 212.789 132.816 213.081C132.324 213.369 131.754 213.513 131.106 213.513ZM131.106 211.989C131.63 211.989 132.02 211.813 132.276 211.461C132.536 211.105 132.666 210.649 132.666 210.093C132.666 209.517 132.534 209.057 132.27 208.713C132.01 208.369 131.622 208.197 131.106 208.197C130.75 208.197 130.458 208.277 130.23 208.437C130.002 208.597 129.832 208.819 129.72 209.103C129.612 209.387 129.558 209.717 129.558 210.093C129.558 210.673 129.688 211.135 129.948 211.479C130.212 211.819 130.598 211.989 131.106 211.989ZM138.126 213.525C137.618 213.525 137.204 213.439 136.884 213.267C136.564 213.095 136.314 212.877 136.134 212.613C135.958 212.349 135.832 212.075 135.756 211.791C135.68 211.503 135.634 211.241 135.618 211.005C135.602 210.769 135.594 210.597 135.594 210.489V206.853H137.25V209.913C137.25 210.061 137.258 210.251 137.274 210.483C137.29 210.711 137.34 210.941 137.424 211.173C137.508 211.405 137.644 211.599 137.832 211.755C138.024 211.911 138.294 211.989 138.642 211.989C138.782 211.989 138.932 211.967 139.092 211.923C139.252 211.879 139.402 211.795 139.542 211.671C139.682 211.543 139.796 211.357 139.884 211.113C139.976 210.865 140.022 210.541 140.022 210.141L140.958 210.585C140.958 211.097 140.854 211.577 140.646 212.025C140.438 212.473 140.124 212.835 139.704 213.111C139.288 213.387 138.762 213.525 138.126 213.525ZM140.226 213.333V211.185H140.022V206.853H141.666V213.333H140.226ZM144.194 215.661L142.982 214.773C143.47 214.185 143.852 213.599 144.128 213.015C144.404 212.427 144.598 211.833 144.71 211.233C144.826 210.629 144.886 210.009 144.89 209.373C144.886 208.737 144.826 208.119 144.71 207.519C144.598 206.915 144.404 206.321 144.128 205.737C143.852 205.149 143.47 204.561 142.982 203.973L144.194 203.085C144.658 203.629 145.054 204.247 145.382 204.939C145.714 205.627 145.964 206.351 146.132 207.111C146.304 207.871 146.382 208.625 146.366 209.373C146.382 210.121 146.304 210.875 146.132 211.635C145.964 212.391 145.714 213.115 145.382 213.807C145.054 214.499 144.658 215.117 144.194 215.661Z" fill="black"/>
<path d="M115.239 105.202L113.673 104.732L114.213 106.275L120.047 122.942L120.853 125.244L121.624 122.93L124.015 115.758L132.039 111.745L133.919 110.806L131.906 110.202L115.239 105.202Z" fill="#FD8DF8" stroke="black" stroke-width="1.66667" stroke-linecap="round"/>
<rect x="138" y="114" width="104" height="18" fill="#FD8DF8"/>
<path d="M142.507 127.333V118.693H146.155C146.239 118.693 146.351 118.697 146.491 118.705C146.635 118.709 146.763 118.721 146.875 118.741C147.391 118.821 147.813 118.991 148.141 119.251C148.473 119.511 148.717 119.839 148.873 120.235C149.029 120.627 149.107 121.065 149.107 121.549C149.107 122.033 149.027 122.473 148.867 122.869C148.711 123.261 148.467 123.587 148.135 123.847C147.807 124.107 147.387 124.277 146.875 124.357C146.763 124.373 146.635 124.385 146.491 124.393C146.347 124.401 146.235 124.405 146.155 124.405H144.139V127.333H142.507ZM144.139 122.881H146.083C146.167 122.881 146.259 122.877 146.359 122.869C146.459 122.861 146.551 122.845 146.635 122.821C146.855 122.761 147.025 122.661 147.145 122.521C147.265 122.377 147.347 122.219 147.391 122.047C147.439 121.871 147.463 121.705 147.463 121.549C147.463 121.393 147.439 121.229 147.391 121.057C147.347 120.881 147.265 120.723 147.145 120.583C147.025 120.439 146.855 120.337 146.635 120.277C146.551 120.253 146.459 120.237 146.359 120.229C146.259 120.221 146.167 120.217 146.083 120.217H144.139V122.881ZM150.311 127.333V120.853H151.751V122.437L151.595 122.233C151.679 122.009 151.791 121.805 151.931 121.621C152.071 121.437 152.243 121.285 152.447 121.165C152.603 121.069 152.773 120.995 152.957 120.943C153.141 120.887 153.331 120.853 153.527 120.841C153.723 120.825 153.919 120.829 154.115 120.853V122.377C153.935 122.321 153.725 122.303 153.485 122.323C153.249 122.339 153.035 122.393 152.843 122.485C152.651 122.573 152.489 122.691 152.357 122.839C152.225 122.983 152.125 123.155 152.057 123.355C151.989 123.551 151.955 123.773 151.955 124.021V127.333H150.311ZM158.055 127.513C157.403 127.513 156.831 127.367 156.339 127.075C155.847 126.783 155.463 126.381 155.187 125.869C154.915 125.353 154.779 124.761 154.779 124.093C154.779 123.417 154.919 122.823 155.199 122.311C155.479 121.795 155.865 121.393 156.357 121.105C156.849 120.817 157.415 120.673 158.055 120.673C158.707 120.673 159.279 120.819 159.771 121.111C160.267 121.403 160.653 121.807 160.929 122.323C161.205 122.835 161.343 123.425 161.343 124.093C161.343 124.765 161.203 125.359 160.923 125.875C160.647 126.387 160.261 126.789 159.765 127.081C159.273 127.369 158.703 127.513 158.055 127.513ZM158.055 125.989C158.579 125.989 158.969 125.813 159.225 125.461C159.485 125.105 159.615 124.649 159.615 124.093C159.615 123.517 159.483 123.057 159.219 122.713C158.959 122.369 158.571 122.197 158.055 122.197C157.699 122.197 157.407 122.277 157.179 122.437C156.951 122.597 156.781 122.819 156.669 123.103C156.561 123.387 156.507 123.717 156.507 124.093C156.507 124.673 156.637 125.135 156.897 125.479C157.161 125.819 157.547 125.989 158.055 125.989ZM161.703 130.213V128.689H161.991C162.363 128.689 162.617 128.605 162.753 128.437C162.893 128.269 162.963 128.029 162.963 127.717V120.853H164.595V128.509C164.595 129.025 164.433 129.437 164.109 129.745C163.789 130.057 163.355 130.213 162.807 130.213H161.703ZM162.963 119.953V118.513H164.595V119.953H162.963ZM169.284 127.513C168.62 127.513 168.034 127.371 167.526 127.087C167.022 126.799 166.626 126.405 166.338 125.905C166.054 125.401 165.912 124.825 165.912 124.177C165.912 123.469 166.052 122.853 166.332 122.329C166.612 121.805 166.998 121.399 167.49 121.111C167.982 120.819 168.548 120.673 169.188 120.673C169.868 120.673 170.446 120.833 170.922 121.153C171.398 121.473 171.75 121.923 171.978 122.503C172.206 123.083 172.286 123.765 172.218 124.549H170.604V123.949C170.604 123.289 170.498 122.815 170.286 122.527C170.078 122.235 169.736 122.089 169.26 122.089C168.704 122.089 168.294 122.259 168.03 122.599C167.77 122.935 167.64 123.433 167.64 124.093C167.64 124.697 167.77 125.165 168.03 125.497C168.294 125.825 168.68 125.989 169.188 125.989C169.508 125.989 169.782 125.919 170.01 125.779C170.238 125.639 170.412 125.437 170.532 125.173L172.164 125.641C171.92 126.233 171.534 126.693 171.006 127.021C170.482 127.349 169.908 127.513 169.284 127.513ZM167.136 124.549V123.337H171.432V124.549H167.136ZM176.429 127.513C175.757 127.513 175.181 127.363 174.701 127.063C174.221 126.763 173.853 126.355 173.597 125.839C173.341 125.323 173.213 124.741 173.213 124.093C173.213 123.437 173.345 122.851 173.609 122.335C173.877 121.819 174.253 121.413 174.737 121.117C175.221 120.821 175.793 120.673 176.453 120.673C177.217 120.673 177.857 120.867 178.373 121.255C178.893 121.639 179.225 122.165 179.369 122.833L177.737 123.265C177.641 122.929 177.473 122.667 177.233 122.479C176.997 122.291 176.729 122.197 176.429 122.197C176.085 122.197 175.803 122.281 175.583 122.449C175.363 122.613 175.201 122.839 175.097 123.127C174.993 123.411 174.941 123.733 174.941 124.093C174.941 124.657 175.065 125.115 175.313 125.467C175.565 125.815 175.937 125.989 176.429 125.989C176.797 125.989 177.077 125.905 177.269 125.737C177.461 125.569 177.605 125.329 177.701 125.017L179.369 125.365C179.185 126.053 178.837 126.583 178.325 126.955C177.813 127.327 177.181 127.513 176.429 127.513ZM184.457 127.333C184.009 127.417 183.569 127.453 183.137 127.441C182.709 127.433 182.325 127.359 181.985 127.219C181.649 127.075 181.393 126.845 181.217 126.529C181.057 126.233 180.973 125.933 180.965 125.629C180.957 125.321 180.953 124.973 180.953 124.585V119.053H182.585V124.489C182.585 124.741 182.587 124.969 182.591 125.173C182.599 125.373 182.641 125.533 182.717 125.653C182.861 125.881 183.091 126.005 183.407 126.025C183.723 126.045 184.073 126.029 184.457 125.977V127.333ZM179.849 122.113V120.853H184.457V122.113H179.849ZM188.303 127.333V118.693H189.767L192.623 124.429L195.479 118.693H196.943V127.333H195.419V122.173L192.911 127.333H192.335L189.827 122.173V127.333H188.303ZM200.428 127.513C199.964 127.513 199.57 127.425 199.246 127.249C198.926 127.069 198.682 126.831 198.514 126.535C198.35 126.235 198.268 125.905 198.268 125.545C198.268 125.245 198.314 124.971 198.406 124.723C198.498 124.475 198.646 124.257 198.85 124.069C199.058 123.877 199.336 123.717 199.684 123.589C199.924 123.501 200.21 123.423 200.542 123.355C200.874 123.287 201.25 123.223 201.67 123.163C202.09 123.099 202.552 123.029 203.056 122.953L202.468 123.277C202.468 122.893 202.376 122.611 202.192 122.431C202.008 122.251 201.7 122.161 201.268 122.161C201.028 122.161 200.778 122.219 200.518 122.335C200.258 122.451 200.076 122.657 199.972 122.953L198.496 122.485C198.66 121.949 198.968 121.513 199.42 121.177C199.872 120.841 200.488 120.673 201.268 120.673C201.84 120.673 202.348 120.761 202.792 120.937C203.236 121.113 203.572 121.417 203.8 121.849C203.928 122.089 204.004 122.329 204.028 122.569C204.052 122.809 204.064 123.077 204.064 123.373V127.333H202.636V126.001L202.84 126.277C202.524 126.713 202.182 127.029 201.814 127.225C201.45 127.417 200.988 127.513 200.428 127.513ZM200.776 126.229C201.076 126.229 201.328 126.177 201.532 126.073C201.74 125.965 201.904 125.843 202.024 125.707C202.148 125.571 202.232 125.457 202.276 125.365C202.36 125.189 202.408 124.985 202.42 124.753C202.436 124.517 202.444 124.321 202.444 124.165L202.924 124.285C202.44 124.365 202.048 124.433 201.748 124.489C201.448 124.541 201.206 124.589 201.022 124.633C200.838 124.677 200.676 124.725 200.536 124.777C200.376 124.841 200.246 124.911 200.146 124.987C200.05 125.059 199.978 125.139 199.93 125.227C199.886 125.315 199.864 125.413 199.864 125.521C199.864 125.669 199.9 125.797 199.972 125.905C200.048 126.009 200.154 126.089 200.29 126.145C200.426 126.201 200.588 126.229 200.776 126.229ZM210.04 127.333V124.273C210.04 124.125 210.032 123.937 210.016 123.709C210 123.477 209.95 123.245 209.866 123.013C209.782 122.781 209.644 122.587 209.452 122.431C209.264 122.275 208.996 122.197 208.648 122.197C208.508 122.197 208.358 122.219 208.198 122.263C208.038 122.307 207.888 122.393 207.748 122.521C207.608 122.645 207.492 122.829 207.4 123.073C207.312 123.317 207.268 123.641 207.268 124.045L206.332 123.601C206.332 123.089 206.436 122.609 206.644 122.161C206.852 121.713 207.164 121.351 207.58 121.075C208 120.799 208.528 120.661 209.164 120.661C209.672 120.661 210.086 120.747 210.406 120.919C210.726 121.091 210.974 121.309 211.15 121.573C211.33 121.837 211.458 122.113 211.534 122.401C211.61 122.685 211.656 122.945 211.672 123.181C211.688 123.417 211.696 123.589 211.696 123.697V127.333H210.04ZM205.612 127.333V120.853H207.064V123.001H207.268V127.333H205.612ZM215.053 127.513C214.589 127.513 214.195 127.425 213.871 127.249C213.551 127.069 213.307 126.831 213.139 126.535C212.975 126.235 212.893 125.905 212.893 125.545C212.893 125.245 212.939 124.971 213.031 124.723C213.123 124.475 213.271 124.257 213.475 124.069C213.683 123.877 213.961 123.717 214.309 123.589C214.549 123.501 214.835 123.423 215.167 123.355C215.499 123.287 215.875 123.223 216.295 123.163C216.715 123.099 217.177 123.029 217.681 122.953L217.093 123.277C217.093 122.893 217.001 122.611 216.817 122.431C216.633 122.251 216.325 122.161 215.893 122.161C215.653 122.161 215.403 122.219 215.143 122.335C214.883 122.451 214.701 122.657 214.597 122.953L213.121 122.485C213.285 121.949 213.593 121.513 214.045 121.177C214.497 120.841 215.113 120.673 215.893 120.673C216.465 120.673 216.973 120.761 217.417 120.937C217.861 121.113 218.197 121.417 218.425 121.849C218.553 122.089 218.629 122.329 218.653 122.569C218.677 122.809 218.689 123.077 218.689 123.373V127.333H217.261V126.001L217.465 126.277C217.149 126.713 216.807 127.029 216.439 127.225C216.075 127.417 215.613 127.513 215.053 127.513ZM215.401 126.229C215.701 126.229 215.953 126.177 216.157 126.073C216.365 125.965 216.529 125.843 216.649 125.707C216.773 125.571 216.857 125.457 216.901 125.365C216.985 125.189 217.033 124.985 217.045 124.753C217.061 124.517 217.069 124.321 217.069 124.165L217.549 124.285C217.065 124.365 216.673 124.433 216.373 124.489C216.073 124.541 215.831 124.589 215.647 124.633C215.463 124.677 215.301 124.725 215.161 124.777C215.001 124.841 214.871 124.911 214.771 124.987C214.675 125.059 214.603 125.139 214.555 125.227C214.511 125.315 214.489 125.413 214.489 125.521C214.489 125.669 214.525 125.797 214.597 125.905C214.673 126.009 214.779 126.089 214.915 126.145C215.051 126.201 215.213 126.229 215.401 126.229ZM223.021 130.393C222.653 130.393 222.303 130.333 221.971 130.213C221.639 130.097 221.341 129.933 221.077 129.721C220.817 129.513 220.605 129.269 220.441 128.989L221.953 128.257C222.057 128.449 222.205 128.595 222.397 128.695C222.593 128.795 222.805 128.845 223.033 128.845C223.277 128.845 223.507 128.803 223.723 128.719C223.939 128.639 224.111 128.517 224.239 128.353C224.371 128.193 224.433 127.993 224.425 127.753V125.869H224.629V120.853H226.057V127.777C226.057 127.937 226.049 128.087 226.033 128.227C226.021 128.371 225.997 128.513 225.961 128.653C225.857 129.049 225.663 129.375 225.379 129.631C225.099 129.887 224.755 130.077 224.347 130.201C223.939 130.329 223.497 130.393 223.021 130.393ZM222.877 127.513C222.281 127.513 221.759 127.363 221.311 127.063C220.863 126.763 220.513 126.355 220.261 125.839C220.013 125.323 219.889 124.741 219.889 124.093C219.889 123.433 220.015 122.847 220.267 122.335C220.523 121.819 220.881 121.413 221.341 121.117C221.801 120.821 222.341 120.673 222.961 120.673C223.577 120.673 224.095 120.823 224.515 121.123C224.935 121.423 225.253 121.831 225.469 122.347C225.685 122.863 225.793 123.445 225.793 124.093C225.793 124.741 225.683 125.323 225.463 125.839C225.247 126.355 224.923 126.763 224.491 127.063C224.059 127.363 223.521 127.513 222.877 127.513ZM223.141 126.061C223.505 126.061 223.795 125.979 224.011 125.815C224.231 125.651 224.389 125.421 224.485 125.125C224.581 124.829 224.629 124.485 224.629 124.093C224.629 123.701 224.581 123.357 224.485 123.061C224.389 122.765 224.235 122.535 224.023 122.371C223.815 122.207 223.541 122.125 223.201 122.125C222.837 122.125 222.537 122.215 222.301 122.395C222.069 122.571 221.897 122.809 221.785 123.109C221.673 123.405 221.617 123.733 221.617 124.093C221.617 124.457 221.671 124.789 221.779 125.089C221.887 125.385 222.053 125.621 222.277 125.797C222.501 125.973 222.789 126.061 223.141 126.061ZM230.749 127.513C230.085 127.513 229.499 127.371 228.991 127.087C228.487 126.799 228.091 126.405 227.803 125.905C227.519 125.401 227.377 124.825 227.377 124.177C227.377 123.469 227.517 122.853 227.797 122.329C228.077 121.805 228.463 121.399 228.955 121.111C229.447 120.819 230.013 120.673 230.653 120.673C231.333 120.673 231.911 120.833 232.387 121.153C232.863 121.473 233.215 121.923 233.443 122.503C233.671 123.083 233.751 123.765 233.683 124.549H232.069V123.949C232.069 123.289 231.963 122.815 231.751 122.527C231.543 122.235 231.201 122.089 230.725 122.089C230.169 122.089 229.759 122.259 229.495 122.599C229.235 122.935 229.105 123.433 229.105 124.093C229.105 124.697 229.235 125.165 229.495 125.497C229.759 125.825 230.145 125.989 230.653 125.989C230.973 125.989 231.247 125.919 231.475 125.779C231.703 125.639 231.877 125.437 231.997 125.173L233.629 125.641C233.385 126.233 232.999 126.693 232.471 127.021C231.947 127.349 231.373 127.513 230.749 127.513ZM228.601 124.549V123.337H232.897V124.549H228.601ZM235.038 127.333V120.853H236.478V122.437L236.322 122.233C236.406 122.009 236.518 121.805 236.658 121.621C236.798 121.437 236.97 121.285 237.174 121.165C237.33 121.069 237.5 120.995 237.684 120.943C237.868 120.887 238.058 120.853 238.254 120.841C238.45 120.825 238.646 120.829 238.842 120.853V122.377C238.662 122.321 238.452 122.303 238.212 122.323C237.976 122.339 237.762 122.393 237.57 122.485C237.378 122.573 237.216 122.691 237.084 122.839C236.952 122.983 236.852 123.155 236.784 123.355C236.716 123.551 236.682 123.773 236.682 124.021V127.333H235.038Z" fill="black"/>
<defs>
<filter id="filter0_b_137_1709" x="255.223" y="91.4922" width="90.2598" height="90.2598" filterUnits="userSpaceOnUse" color-interpolation-filters="sRGB">
<feFlood flood-opacity="0" result="BackgroundImageFix"/>
<feGaussianBlur in="BackgroundImageFix" stdDeviation="2"/>
<feComposite in2="SourceAlpha" operator="in" result="effect1_backgroundBlur_137_1709"/>
<feBlend mode="normal" in="SourceGraphic" in2="effect1_backgroundBlur_137_1709" result="shape"/>
</filter>
<filter id="filter1_d_137_1709" x="233.762" y="75.9065" width="160.602" height="160.602" filterUnits="userSpaceOnUse" color-interpolation-filters="sRGB">
<feFlood flood-opacity="0" result="BackgroundImageFix"/>
<feColorMatrix in="SourceAlpha" type="matrix" values="0 0 0 0 0 0 0 0 0 0 0 0 0 0 0 0 0 0 127 0" result="hardAlpha"/>
<feOffset dy="6.52855"/>
<feGaussianBlur stdDeviation="6.52855"/>
<feComposite in2="hardAlpha" operator="out"/>
<feColorMatrix type="matrix" values="0 0 0 0 0 0 0 0 0 0 0 0 0 0 0 0 0 0 0.25 0"/>
<feBlend mode="normal" in2="BackgroundImageFix" result="effect1_dropShadow_137_1709"/>
<feBlend mode="normal" in="SourceGraphic" in2="effect1_dropShadow_137_1709" result="shape"/>
</filter>
<linearGradient id="paint0_linear_137_1709" x1="74.6144" y1="19.6184" x2="22.0649" y2="32.4415" gradientUnits="userSpaceOnUse">
<stop stop-color="#3878D7"/>
<stop offset="1" stop-color="#1451AE"/>
</linearGradient>
<linearGradient id="paint1_linear_137_1709" x1="202.5" y1="182.5" x2="257.5" y2="192" gradientUnits="userSpaceOnUse">
<stop stop-color="#62C2D7"/>
<stop offset="1" stop-color="#3971FF"/>
</linearGradient>
<linearGradient id="paint2_linear_137_1709" x1="300.353" y1="95.4922" x2="300.353" y2="177.752" gradientUnits="userSpaceOnUse">
<stop stop-color="white"/>
<stop offset="1"/>
</linearGradient>
<linearGradient id="paint3_linear_137_1709" x1="356" y1="82.0001" x2="277.5" y2="166.5" gradientUnits="userSpaceOnUse">
<stop stop-color="#DCDCDC"/>
<stop offset="0.34375" stop-color="white"/>
<stop offset="0.723958" stop-color="#444444"/>
<stop offset="1" stop-color="#767676"/>
</linearGradient>
</defs>
</svg>
