<svg width="166" height="38" viewBox="0 0 166 38" fill="none" xmlns="http://www.w3.org/2000/svg">
<path d="M22.4023 28.6542C22.1963 29.0641 21.7757 29.323 21.3157 29.323L10.8185 29.323C9.91494 29.323 9.32743 28.3753 9.73189 27.5703L18.8877 9.34577C19.0937 8.93586 19.5143 8.67697 19.9744 8.67697L30.4715 8.67697C31.3751 8.67697 31.9626 9.62464 31.5581 10.4297L22.4023 28.6542Z" fill="white"/>
<path d="M0.129754 10.4316L6.86758 23.8474C7.31838 24.745 8.61254 24.7467 9.06576 23.8503L13.5715 14.1849C13.7456 13.8406 13.7443 13.435 13.5679 13.0918L11.9794 9.34131C11.77 8.93373 11.3469 8.67698 10.8846 8.67698L1.22958 8.67698C0.318131 8.67698 -0.275677 9.62432 0.129754 10.4316Z" fill="white"/>
<path d="M38.4798 15.6169H42.8369L45.5353 22.524L48.209 15.6169H52.5662L47.5901 27.5H43.4558L38.4798 15.6169ZM56.6297 14.0325C55.9695 14.0325 55.4166 13.8179 54.971 13.3888C54.5254 12.9597 54.3026 12.4151 54.3026 11.7549C54.3026 11.1112 54.5254 10.5749 54.971 10.1457C55.4166 9.70013 55.9695 9.47732 56.6297 9.47732C57.2734 9.47732 57.818 9.70013 58.2636 10.1457C58.7257 10.5749 58.9568 11.1112 58.9568 11.7549C58.9568 12.3986 58.7257 12.9432 58.2636 13.3888C57.818 13.8179 57.2734 14.0325 56.6297 14.0325ZM54.4511 15.6169H58.8083V27.5H54.4511V15.6169ZM66.3174 27.8713C65.3601 27.8713 64.3616 27.7723 63.3219 27.5743C62.2821 27.3927 61.4569 27.1287 60.8462 26.7821V23.5885C61.5229 23.9846 62.3316 24.3147 63.2723 24.5787C64.2296 24.8263 65.1043 24.9501 65.8965 24.9501C66.4742 24.9501 66.895 24.9088 67.1591 24.8263C67.4232 24.7438 67.5552 24.5787 67.5552 24.3312C67.5552 24.1331 67.4644 23.9763 67.2829 23.8608C67.1178 23.7288 66.8043 23.5967 66.3421 23.4647C65.8965 23.3162 65.3766 23.1594 64.7825 22.9943C63.7757 22.6973 62.9835 22.3919 62.4059 22.0783C61.8282 21.7648 61.3991 21.3687 61.1185 20.89C60.838 20.4114 60.6977 19.809 60.6977 19.0828C60.6977 17.7955 61.2011 16.8382 62.2078 16.2111C63.2311 15.5674 64.6257 15.2456 66.3917 15.2456C67.2499 15.2456 68.1494 15.3363 69.0901 15.5179C70.0474 15.6994 70.7653 15.9387 71.2439 16.2358V19.3799C70.7488 19.0498 70.0886 18.7775 69.2634 18.5629C68.4547 18.3484 67.6955 18.2411 66.9858 18.2411C66.4247 18.2411 65.9873 18.2989 65.6737 18.4144C65.3601 18.5134 65.2033 18.695 65.2033 18.959C65.2033 19.2066 65.3601 19.3964 65.6737 19.5284C65.9873 19.6605 66.5484 19.8255 67.3572 20.0236C67.8853 20.1556 68.1081 20.2134 68.0256 20.1969C69.0819 20.4774 69.8988 20.791 70.4765 21.1376C71.0541 21.4842 71.4585 21.8968 71.6895 22.3754C71.9371 22.8375 72.0609 23.4317 72.0609 24.1579C72.0609 25.2967 71.5657 26.2044 70.5755 26.8811C69.6017 27.5413 68.1824 27.8713 66.3174 27.8713ZM78.5666 27.8713C76.9327 27.8713 75.7031 27.4175 74.8779 26.5097C74.0692 25.602 73.6648 24.4054 73.6648 22.9201V15.6169H78.022V22.4249C78.022 23.7948 78.6409 24.4797 79.8787 24.4797C80.4398 24.4797 80.9515 24.3477 81.4136 24.0836C81.8757 23.8195 82.2553 23.4317 82.5524 22.9201V15.6169H86.9095V27.5H82.7009V26.2127C82.1893 26.7573 81.5704 27.1699 80.8442 27.4505C80.118 27.7311 79.3588 27.8713 78.5666 27.8713ZM93.2588 27.8713C91.7734 27.8713 90.5686 27.5165 89.6443 26.8068C88.7366 26.0806 88.2827 25.0739 88.2827 23.7865C88.2827 22.4497 88.7201 21.4264 89.5948 20.7167C90.486 19.9906 91.7569 19.6275 93.4073 19.6275C94.051 19.6275 94.6946 19.7017 95.3383 19.8503C95.982 19.9823 96.5349 20.1638 96.997 20.3949V20.1473C96.997 18.8765 95.9572 18.2411 93.8777 18.2411C92.4253 18.2411 91.0967 18.5217 89.8919 19.0828V16.0873C90.42 15.8397 91.1132 15.6417 91.9714 15.4931C92.8296 15.3281 93.7209 15.2456 94.6451 15.2456C96.8567 15.2456 98.5236 15.6912 99.6459 16.5824C100.785 17.4571 101.354 18.6867 101.354 20.2711V27.5H97.2693V26.485C96.8237 26.9141 96.2625 27.2524 95.5859 27.5C94.9092 27.7476 94.1335 27.8713 93.2588 27.8713ZM94.5461 25.1977C95.0577 25.1977 95.5364 25.0986 95.982 24.9006C96.4276 24.686 96.7659 24.4137 96.997 24.0836V23.0438C96.2873 22.5652 95.4786 22.3259 94.5709 22.3259C93.9932 22.3259 93.5476 22.4497 93.234 22.6973C92.9204 22.9448 92.7636 23.3079 92.7636 23.7865C92.7636 24.2322 92.9122 24.5787 93.2092 24.8263C93.5228 25.0739 93.9684 25.1977 94.5461 25.1977ZM103.453 9.205H107.81V27.5H103.453V9.205ZM115.846 27.8713C114.609 27.8713 113.511 27.6155 112.554 27.1039C111.597 26.5758 110.854 25.8413 110.326 24.9006C109.798 23.9433 109.534 22.8375 109.534 21.5832C109.534 20.3454 109.798 19.2479 110.326 18.2906C110.854 17.3169 111.588 16.5659 112.529 16.0378C113.486 15.5096 114.592 15.2456 115.846 15.2456C116.672 15.2456 117.431 15.3611 118.124 15.5922C118.817 15.8232 119.411 16.1533 119.907 16.5824V9.205H124.264V27.5H120.055V26.3117C118.949 27.3515 117.546 27.8713 115.846 27.8713ZM116.985 24.5045C117.645 24.5045 118.24 24.3394 118.768 24.0093C119.296 23.6628 119.675 23.2006 119.907 22.623V20.5187C119.675 19.941 119.296 19.4872 118.768 19.1571C118.24 18.8105 117.645 18.6372 116.985 18.6372C116.094 18.6372 115.376 18.9013 114.831 19.4294C114.287 19.9575 114.015 20.6755 114.015 21.5832C114.015 22.4909 114.287 23.2089 114.831 23.737C115.376 24.2487 116.094 24.5045 116.985 24.5045ZM133.474 27.8713C131.147 27.8713 129.315 27.3267 127.978 26.2374C126.658 25.1481 125.998 23.605 125.998 21.608C125.998 19.644 126.583 18.0926 127.755 16.9538C128.944 15.815 130.652 15.2456 132.88 15.2456C134.299 15.2456 135.512 15.5179 136.519 16.0625C137.542 16.5907 138.31 17.3251 138.821 18.2659C139.35 19.1901 139.614 20.2381 139.614 21.4099V23.0191H130.132C130.297 23.6793 130.71 24.1579 131.37 24.455C132.03 24.752 132.929 24.9006 134.068 24.9006C134.844 24.9006 135.636 24.8346 136.445 24.7025C137.27 24.5705 137.98 24.3889 138.574 24.1579V27.0296C137.963 27.2772 137.196 27.4752 136.272 27.6238C135.364 27.7888 134.431 27.8713 133.474 27.8713ZM135.504 20.2959C135.438 19.6522 135.174 19.1488 134.712 18.7857C134.25 18.4226 133.614 18.2411 132.806 18.2411C132.013 18.2411 131.386 18.4309 130.924 18.8105C130.462 19.1736 130.198 19.6687 130.132 20.2959H135.504ZM139.488 15.6169H143.845L146.543 22.524L149.217 15.6169H153.574L148.598 27.5H144.464L139.488 15.6169ZM159.323 27.8713C158.366 27.8713 157.367 27.7723 156.328 27.5743C155.288 27.3927 154.463 27.1287 153.852 26.7821V23.5885C154.529 23.9846 155.337 24.3147 156.278 24.5787C157.235 24.8263 158.11 24.9501 158.902 24.9501C159.48 24.9501 159.901 24.9088 160.165 24.8263C160.429 24.7438 160.561 24.5787 160.561 24.3312C160.561 24.1331 160.47 23.9763 160.289 23.8608C160.124 23.7288 159.81 23.5967 159.348 23.4647C158.902 23.3162 158.382 23.1594 157.788 22.9943C156.782 22.6973 155.989 22.3919 155.412 22.0783C154.834 21.7648 154.405 21.3687 154.124 20.89C153.844 20.4114 153.704 19.809 153.704 19.0828C153.704 17.7955 154.207 16.8382 155.214 16.2111C156.237 15.5674 157.632 15.2456 159.397 15.2456C160.256 15.2456 161.155 15.3363 162.096 15.5179C163.053 15.6994 163.771 15.9387 164.25 16.2358V19.3799C163.755 19.0498 163.094 18.7775 162.269 18.5629C161.461 18.3484 160.701 18.2411 159.992 18.2411C159.43 18.2411 158.993 18.2989 158.68 18.4144C158.366 18.5134 158.209 18.695 158.209 18.959C158.209 19.2066 158.366 19.3964 158.68 19.5284C158.993 19.6605 159.554 19.8255 160.363 20.0236C160.891 20.1556 161.114 20.2134 161.031 20.1969C162.088 20.4774 162.905 20.791 163.482 21.1376C164.06 21.4842 164.464 21.8968 164.695 22.3754C164.943 22.8375 165.067 23.4317 165.067 24.1579C165.067 25.2967 164.572 26.2044 163.581 26.8811C162.608 27.5413 161.188 27.8713 159.323 27.8713Z" fill="white"/>
</svg>
